<svg width="48" height="48" viewBox="0 0 48 48" fill="none" xmlns="http://www.w3.org/2000/svg">
<rect width="48" height="48" rx="24" fill="#F2F5F6" fill-opacity="0.16"/>
<path d="M27.75 9.875H26.6523C26.265 8.78369 25.2222 8 24 8C22.7778 8 21.735 8.78369 21.3477 9.875H20.25C18.6991 9.875 17.4375 11.1366 17.4375 12.6875C17.4375 13.2057 17.8568 13.625 18.375 13.625H29.625C30.1432 13.625 30.5625 13.2057 30.5625 12.6875C30.5625 11.1366 29.3009 9.875 27.75 9.875Z" fill="#F8F8F8"/>
<path d="M33.375 11.75H32.3426C32.4044 12.0531 32.4375 12.3665 32.4375 12.6875C32.4375 14.2384 31.1759 15.5 29.625 15.5H18.375C16.8241 15.5 15.5625 14.2384 15.5625 12.6875C15.5625 12.3665 15.5956 12.0531 15.6574 11.75H14.625C13.0741 11.75 11.8125 13.0116 11.8125 14.5625V37.1875C11.8125 38.7384 13.0741 40 14.625 40H33.375C34.9259 40 36.1875 38.7384 36.1875 37.1875V14.5625C36.1875 13.0116 34.9259 11.75 33.375 11.75ZM21.1875 34.25H17.4375C16.9193 34.25 16.5 33.8307 16.5 33.3125C16.5 32.7943 16.9193 32.375 17.4375 32.375H21.1875C21.7057 32.375 22.125 32.7943 22.125 33.3125C22.125 33.8307 21.7057 34.25 21.1875 34.25ZM21.1875 27.6875H17.4375C16.9193 27.6875 16.5 27.2682 16.5 26.75C16.5 26.2318 16.9193 25.8125 17.4375 25.8125H21.1875C21.7057 25.8125 22.125 26.2318 22.125 26.75C22.125 27.2682 21.7057 27.6875 21.1875 27.6875ZM21.1875 21.125H17.4375C16.9193 21.125 16.5 20.7057 16.5 20.1875C16.5 19.6693 16.9193 19.25 17.4375 19.25H21.1875C21.7057 19.25 22.125 19.6693 22.125 20.1875C22.125 20.7057 21.7057 21.125 21.1875 21.125ZM30.2878 34.5247C30.654 34.8909 30.654 35.4842 30.2878 35.8504C30.1047 36.0335 29.8648 36.1251 29.625 36.1251C29.3852 36.1251 29.1452 36.0335 28.9622 35.8504L27.75 34.6382L26.5378 35.8504C26.3547 36.0335 26.1148 36.1251 25.875 36.1251C25.6352 36.1251 25.3952 36.0335 25.2122 35.8504C24.846 35.4842 24.846 34.8909 25.2122 34.5247L26.4243 33.3125L25.2121 32.1003C24.8459 31.7341 24.8459 31.1408 25.2121 30.7746C25.5783 30.4084 26.1716 30.4084 26.5378 30.7746L27.75 31.9868L28.9622 30.7746C29.3284 30.4084 29.9217 30.4084 30.2879 30.7746C30.6541 31.1408 30.6541 31.7341 30.2879 32.1003L29.0757 33.3125L30.2878 34.5247ZM31.2253 25.5378L28.4128 28.3503C28.2297 28.5334 27.9898 28.625 27.75 28.625C27.5102 28.625 27.2702 28.5334 27.0872 28.3503L25.2122 26.4753C24.846 26.1091 24.846 25.5158 25.2122 25.1496C25.5784 24.7834 26.1717 24.7834 26.5379 25.1496L27.75 26.3618L29.8997 24.2121C30.2659 23.8459 30.8592 23.8459 31.2254 24.2121C31.5916 24.5783 31.5916 25.1716 31.2253 25.5378ZM31.2253 19.9128L28.4128 22.7253C28.2297 22.9084 27.9898 23 27.75 23C27.5102 23 27.2702 22.9084 27.0872 22.7253L25.2122 20.8503C24.846 20.4841 24.846 19.8908 25.2122 19.5246C25.5784 19.1584 26.1717 19.1584 26.5379 19.5246L27.75 20.7368L29.8997 18.5871C30.2659 18.2209 30.8592 18.2209 31.2254 18.5871C31.5916 18.9533 31.5916 19.5466 31.2253 19.9128Z" fill="#F8F8F8"/>
</svg>
