<svg width="18" height="16" viewBox="0 0 18 16" fill="none" xmlns="http://www.w3.org/2000/svg">
<path fill-rule="evenodd" clip-rule="evenodd" d="M1.2282 13.7279C0.837672 14.1184 0.837672 14.7516 1.2282 15.1421C1.6177 15.5316 2.24859 15.5327 2.63935 15.1452C2.64037 15.1442 2.64139 15.1432 2.64241 15.1421L4.67932 13.1052L6.14637 11.6381L7.71784 10.0667L10.502 7.28254L12.2061 5.57843L13.6515 4.133L16.0774 1.70711C16.0785 1.70608 16.0795 1.70505 16.0805 1.70402C16.468 1.31325 16.4669 0.682391 16.0774 0.292894C15.6869 -0.0976307 15.0538 -0.0976317 14.6632 0.292894L11.84 3.1161C10.9087 2.70138 9.89969 2.42462 8.85992 2.42462C6.824 2.42462 4.90583 3.48571 3.45882 4.56592C1.98618 5.66527 0.851062 6.89881 0.358719 7.46689C-0.119573 8.01876 -0.119573 8.83048 0.358719 9.38235C0.800418 9.892 1.75946 10.9372 3.01543 11.9407L1.2282 13.7279ZM14.5998 6.01315C14.5986 6.01436 14.5974 6.01557 14.5962 6.01679C14.5949 6.01801 14.5937 6.01924 14.5925 6.02046C14.1848 6.43229 14.2149 7.10357 14.6344 7.50451C14.9938 7.84814 15.2989 8.16639 15.5356 8.42462C15.004 9.00465 14.1271 9.88747 13.0646 10.6806C11.7281 11.6784 10.2426 12.4246 8.85992 12.4246C8.81948 12.4246 8.77894 12.424 8.73833 12.4227C8.42296 12.4129 8.1074 12.5079 7.88329 12.7297C7.88207 12.7309 7.88085 12.7321 7.87964 12.7333L7.72307 12.8899C7.72183 12.8911 7.72059 12.8924 7.71936 12.8936C7.20248 13.4157 7.41376 14.2959 8.1446 14.382C8.38101 14.4098 8.61965 14.4246 8.85992 14.4246C10.8958 14.4246 12.814 13.3635 14.261 12.2833C15.7337 11.184 16.8688 9.95043 17.3611 9.38235C17.8394 8.83048 17.8394 8.01876 17.3611 7.46689C17.0787 7.141 16.5847 6.5961 15.9368 5.98318C15.5591 5.62584 14.9689 5.64776 14.5998 6.01315ZM6.8924 8.06372C7.04098 7.24848 7.68378 6.60567 8.49902 6.4571L10.2931 4.66304C9.81008 4.51054 9.32908 4.42462 8.85992 4.42462C7.47725 4.42462 5.99178 5.17085 4.65524 6.1686C3.59273 6.96177 2.71585 7.84459 2.18426 8.42462C2.67944 8.96492 3.47423 9.76796 4.43959 10.5165L6.8924 8.06372Z" fill="#999999"/>
</svg>
