<svg width="23" height="22" viewBox="0 0 23 22" fill="none" xmlns="http://www.w3.org/2000/svg">
<path fill-rule="evenodd" clip-rule="evenodd" d="M7.41715 0.066C8.59015 0.012 8.96415 0 11.9521 0C14.9401 0 15.3141 0.013 16.4861 0.066C17.6581 0.119 18.4581 0.306 19.1581 0.577C19.8911 0.854 20.5561 1.287 21.1061 1.847C21.6661 2.396 22.0981 3.06 22.3741 3.794C22.6461 4.494 22.8321 5.294 22.8861 6.464C22.9401 7.639 22.9521 8.013 22.9521 11C22.9521 13.988 22.9391 14.362 22.8861 15.535C22.8331 16.705 22.6461 17.505 22.3741 18.205C22.0981 18.9391 21.6654 19.6042 21.1061 20.154C20.5561 20.714 19.8911 21.146 19.1581 21.422C18.4581 21.694 17.6581 21.88 16.4881 21.934C15.3141 21.988 14.9401 22 11.9521 22C8.96415 22 8.59015 21.987 7.41715 21.934C6.24715 21.881 5.44715 21.694 4.74715 21.422C4.01307 21.146 3.34797 20.7133 2.79815 20.154C2.23853 19.6047 1.80546 18.9399 1.52915 18.206C1.25815 17.506 1.07215 16.706 1.01815 15.536C0.964148 14.361 0.952148 13.987 0.952148 11C0.952148 8.012 0.965148 7.638 1.01815 6.466C1.07115 5.294 1.25815 4.494 1.52915 3.794C1.80587 3.06008 2.23927 2.39531 2.79915 1.846C3.34819 1.2865 4.01262 0.853443 4.74615 0.577C5.44615 0.306 6.24615 0.12 7.41615 0.066H7.41715ZM16.3971 2.046C15.2371 1.993 14.8891 1.982 11.9521 1.982C9.01515 1.982 8.66715 1.993 7.50715 2.046C6.43415 2.095 5.85215 2.274 5.46415 2.425C4.95115 2.625 4.58415 2.862 4.19915 3.247C3.83419 3.60205 3.55333 4.03428 3.37715 4.512C3.22615 4.9 3.04715 5.482 2.99815 6.555C2.94515 7.715 2.93415 8.063 2.93415 11C2.93415 13.937 2.94515 14.285 2.99815 15.445C3.04715 16.518 3.22615 17.1 3.37715 17.488C3.55315 17.965 3.83415 18.398 4.19915 18.753C4.55415 19.118 4.98715 19.399 5.46415 19.575C5.85215 19.726 6.43415 19.905 7.50715 19.954C8.66715 20.007 9.01415 20.018 11.9521 20.018C14.8901 20.018 15.2371 20.007 16.3971 19.954C17.4701 19.905 18.0521 19.726 18.4401 19.575C18.9531 19.375 19.3201 19.138 19.7051 18.753C20.0701 18.398 20.3511 17.965 20.5271 17.488C20.6781 17.1 20.8571 16.518 20.9061 15.445C20.9591 14.285 20.9701 13.937 20.9701 11C20.9701 8.063 20.9591 7.715 20.9061 6.555C20.8571 5.482 20.6781 4.9 20.5271 4.512C20.3271 3.999 20.0901 3.632 19.7051 3.247C19.3501 2.88207 18.9179 2.60121 18.4401 2.425C18.0521 2.274 17.4701 2.095 16.3971 2.046V2.046ZM10.5471 14.391C11.3318 14.7176 12.2055 14.7617 13.0191 14.5157C13.8326 14.2697 14.5355 13.7489 15.0078 13.0422C15.48 12.3356 15.6922 11.4869 15.6082 10.6411C15.5242 9.79534 15.1492 9.00497 14.5471 8.405C14.1634 8.02148 13.6994 7.72781 13.1885 7.54515C12.6776 7.36248 12.1326 7.29536 11.5926 7.34862C11.0527 7.40187 10.5313 7.57418 10.066 7.85313C9.6006 8.13208 9.20289 8.51074 8.90145 8.96185C8.60001 9.41296 8.40234 9.92529 8.32266 10.462C8.24299 10.9986 8.2833 11.5463 8.44069 12.0655C8.59808 12.5847 8.86863 13.0626 9.23287 13.4647C9.59711 13.8668 10.046 14.1832 10.5471 14.391ZM7.95415 7.002C8.47917 6.47698 9.10247 6.0605 9.78845 5.77636C10.4744 5.49222 11.2097 5.34597 11.9521 5.34597C12.6946 5.34597 13.4299 5.49222 14.1159 5.77636C14.8018 6.0605 15.4251 6.47698 15.9501 7.002C16.4752 7.52702 16.8916 8.15032 17.1758 8.8363C17.4599 9.52228 17.6062 10.2575 17.6062 11C17.6062 11.7425 17.4599 12.4777 17.1758 13.1637C16.8916 13.8497 16.4752 14.473 15.9501 14.998C14.8898 16.0583 13.4517 16.654 11.9521 16.654C10.4526 16.654 9.01448 16.0583 7.95415 14.998C6.89381 13.9377 6.29812 12.4995 6.29812 11C6.29812 9.50046 6.89381 8.06234 7.95415 7.002V7.002ZM18.8601 6.188C18.9903 6.06527 19.0944 5.91768 19.1665 5.75397C19.2385 5.59027 19.277 5.41377 19.2796 5.23493C19.2822 5.05609 19.2489 4.87855 19.1816 4.71281C19.1144 4.54707 19.0146 4.39651 18.8881 4.27004C18.7616 4.14357 18.6111 4.04376 18.4453 3.97652C18.2796 3.90928 18.1021 3.87598 17.9232 3.87858C17.7444 3.88119 17.5679 3.91965 17.4042 3.9917C17.2405 4.06374 17.0929 4.1679 16.9701 4.298C16.7315 4.55103 16.6008 4.88712 16.6059 5.23493C16.6109 5.58274 16.7513 5.91488 16.9973 6.16084C17.2433 6.40681 17.5754 6.54723 17.9232 6.5523C18.271 6.55737 18.6071 6.42669 18.8601 6.188V6.188Z" fill="#D1243A"/>
</svg>
