<svg width="23" height="24" viewBox="0 0 23 24" fill="none" xmlns="http://www.w3.org/2000/svg">
<path fill-rule="evenodd" clip-rule="evenodd" d="M8.54335 8.3628H12.8144V10.5828C13.4297 9.306 15.0075 8.1588 17.3777 8.1588C21.9213 8.1588 23 10.7004 23 15.3636V24H18.4V16.4256C18.4 13.77 17.7848 12.2724 16.2185 12.2724C14.0461 12.2724 13.1433 13.8864 13.1433 16.4244V24H8.54335V8.3628ZM0.6555 23.796H5.2555V8.1588H0.6555V23.796ZM5.91445 3.06C5.91462 3.46233 5.83815 3.86068 5.6895 4.2319C5.54084 4.60313 5.32295 4.93982 5.0485 5.2224C4.49236 5.79915 3.73958 6.12198 2.9555 6.12C2.1728 6.11945 1.42176 5.79744 0.8648 5.2236C0.591343 4.94006 0.374194 4.60299 0.225795 4.23172C0.0773967 3.86045 0.000666002 3.46227 0 3.06C0 2.2476 0.3105 1.47 0.86595 0.8964C1.42242 0.32179 2.17378 -0.000359053 2.95665 3.00317e-07C3.74095 3.00317e-07 4.49305 0.3228 5.0485 0.8964C5.6028 1.47 5.91445 2.2476 5.91445 3.06Z" fill="#D1243A"/>
</svg>
