<svg width="25" height="26" viewBox="0 0 25 26" fill="none" xmlns="http://www.w3.org/2000/svg">
<path d="M12.5 0C5.5971 0 0 5.82098 0 13C0 20.179 5.5971 26 12.5 26C19.4029 26 25 20.179 25 13C25 5.82098 19.4029 0 12.5 0ZM18.5073 9.79933C18.5156 9.93571 18.5156 10.0779 18.5156 10.2172C18.5156 14.477 15.3962 19.3839 9.69587 19.3839C7.93806 19.3839 6.30859 18.8529 4.93583 17.9388C5.18694 17.9679 5.4269 17.9795 5.68359 17.9795C7.13449 17.9795 8.46819 17.4687 9.53125 16.604C8.16964 16.575 7.02567 15.6464 6.63504 14.3696C7.11216 14.4422 7.54185 14.4422 8.03292 14.3116C7.33183 14.1635 6.70166 13.7675 6.24949 13.1909C5.79731 12.6143 5.55102 11.8927 5.55246 11.1487V11.108C5.96261 11.3489 6.44531 11.4969 6.95033 11.5172C6.52579 11.2229 6.17762 10.8243 5.93669 10.3566C5.69577 9.88885 5.56954 9.36654 5.5692 8.83594C5.5692 8.23527 5.71987 7.68683 5.99051 7.21094C6.7687 8.20723 7.73976 9.02206 8.84058 9.60249C9.9414 10.1829 11.1473 10.5159 12.38 10.5799C11.942 8.38906 13.5156 6.61607 15.4074 6.61607C16.3002 6.61607 17.1038 7.00491 17.6702 7.6317C18.3705 7.49531 19.0402 7.22254 19.6373 6.85692C19.4057 7.60268 18.9202 8.23237 18.2757 8.62991C18.9007 8.56027 19.5033 8.38036 20.0614 8.1279C19.6401 8.7721 19.1127 9.34375 18.5073 9.79933V9.79933Z" fill="#D1243A"/>
</svg>
