<svg width="108" height="84" viewBox="0 0 108 84" fill="none" xmlns="http://www.w3.org/2000/svg">
<path d="M68.668 77.6348C66.4032 77.8866 63.1975 78.04 58.668 77.9909L58.7711 76.1832C58.7711 76.1832 65.3087 75.957 65.9296 76.612C65.9296 76.612 66.0285 74.4228 65.1382 74.0058C65.1382 74.0058 66.4411 73.9723 68.0702 74.0667L68.127 76.9169C68.1298 77.0734 68.1829 77.2256 68.2793 77.3536C68.3758 77.4816 68.5112 77.5796 68.668 77.6348Z" fill="#D1243A"/>
<path d="M73.668 77V75C74.0228 75.1648 74.3461 75.3835 74.625 75.6473C74.625 75.6473 74.9768 76.284 73.668 77Z" fill="#020202"/>
<path d="M65.0824 54.7967C64.9325 55.8635 64.7417 56.9198 64.5365 57.9719C64.3354 59.024 64.1097 60.0719 63.8798 61.1198C63.6418 62.1635 63.3976 63.2072 63.1329 64.2467C63.0857 64.4357 63.0364 64.6268 62.9851 64.8158C63.6562 64.7864 64.3333 64.7444 65.0023 64.6793C65.3717 64.6415 65.7411 64.6016 66.1022 64.5323C66.2836 64.4986 66.463 64.4551 66.6399 64.4021C66.8149 64.3585 66.9747 64.2662 67.1016 64.1354L67.1036 64.1333C67.1065 64.1299 67.11 64.127 67.1139 64.1249L65.0824 54.7967ZM61.479 66.3152C60.8958 66.503 60.2863 66.591 59.6752 66.5756C59.0787 66.5609 58.4843 66.4963 57.8981 66.3824C57.3132 66.2752 56.7366 66.1513 56.158 66.0253C54.9923 65.8113 53.8435 65.5102 52.7207 65.1245C51.6036 64.7241 50.5212 64.2289 49.4846 63.644L49.4826 63.6419C48.867 64.8368 48.395 65.6075 48.2021 65.6075C48.2021 65.6075 60.4283 71.9578 61.758 69.3875L62.2752 67.3462C62.3531 66.794 62.4434 66.2437 62.5399 65.6956C62.2325 65.9759 61.8711 66.187 61.479 66.3152ZM49.4928 65.6201C49.4131 65.6172 49.3376 65.5827 49.2822 65.5239C49.2268 65.4652 49.1958 65.3867 49.1958 65.3051C49.1958 65.2234 49.2268 65.1449 49.2822 65.0862C49.3376 65.0274 49.4131 64.993 49.4928 64.9901C49.5726 64.993 49.6481 65.0274 49.7035 65.0862C49.7589 65.1449 49.7899 65.2234 49.7899 65.3051C49.7899 65.3867 49.7589 65.4652 49.7035 65.5239C49.6481 65.5827 49.5726 65.6172 49.4928 65.6201ZM50.564 66.1493C50.4843 66.1463 50.4088 66.1119 50.3534 66.0531C50.298 65.9944 50.267 65.9159 50.267 65.8343C50.267 65.7526 50.298 65.6741 50.3534 65.6154C50.4088 65.5566 50.4843 65.5222 50.564 65.5193C50.6438 65.5222 50.7193 65.5566 50.7747 65.6154C50.8301 65.6742 50.861 65.7526 50.861 65.8343C50.861 65.9159 50.8301 65.9944 50.7747 66.0531C50.7193 66.1119 50.6438 66.1463 50.564 66.1493ZM51.746 66.6407C51.6663 66.6377 51.5907 66.6033 51.5353 66.5445C51.4799 66.4858 51.449 66.4073 51.449 66.3257C51.449 66.244 51.4799 66.1655 51.5353 66.1068C51.5907 66.048 51.6663 66.0136 51.746 66.0107C51.8258 66.0136 51.9013 66.048 51.9567 66.1068C52.0121 66.1655 52.0431 66.244 52.0431 66.3257C52.0431 66.4073 52.0121 66.4858 51.9567 66.5445C51.9013 66.6033 51.8258 66.6377 51.746 66.6407ZM53.0019 67.1699C52.9221 67.167 52.8466 67.1325 52.7912 67.0737C52.7358 67.015 52.7048 66.9365 52.7048 66.8549C52.7048 66.7732 52.7358 66.6947 52.7912 66.636C52.8466 66.5772 52.9221 66.5428 53.0019 66.5399C53.0816 66.5428 53.1571 66.5772 53.2125 66.636C53.268 66.6947 53.2989 66.7732 53.2989 66.8549C53.2989 66.9365 53.268 67.015 53.2125 67.0737C53.1571 67.1325 53.0816 67.167 53.0019 67.1699ZM54.2947 67.7369C54.2149 67.734 54.1394 67.6995 54.084 67.6407C54.0286 67.582 53.9977 67.5035 53.9977 67.4219C53.9977 67.3402 54.0286 67.2618 54.084 67.203C54.1394 67.1442 54.2149 67.1098 54.2947 67.1069C54.3744 67.1098 54.4499 67.1443 54.5053 67.203C54.5607 67.2618 54.5917 67.3402 54.5917 67.4219C54.5917 67.5035 54.5607 67.582 54.5053 67.6407C54.4499 67.6995 54.3744 67.7339 54.2947 67.7369ZM55.8091 68.3039C55.7294 68.3009 55.6538 68.2665 55.5984 68.2077C55.543 68.149 55.5121 68.0705 55.5121 67.9889C55.5121 67.9072 55.543 67.8287 55.5984 67.77C55.6538 67.7112 55.7294 67.6768 55.8091 67.6739C55.8888 67.6768 55.9643 67.7112 56.0197 67.77C56.0751 67.8288 56.1061 67.9072 56.1061 67.9889C56.1061 68.0705 56.0751 68.149 56.0197 68.2077C55.9643 68.2665 55.8888 68.3009 55.8091 68.3039ZM57.3605 68.8331C57.2807 68.8301 57.2052 68.7957 57.1498 68.7369C57.0944 68.6782 57.0634 68.5997 57.0634 68.5181C57.0634 68.4364 57.0944 68.3579 57.1498 68.2992C57.2052 68.2404 57.2807 68.206 57.3605 68.2031C57.4402 68.206 57.5157 68.2404 57.5711 68.2992C57.6265 68.358 57.6574 68.4364 57.6574 68.5181C57.6574 68.5997 57.6265 68.6782 57.5711 68.7369C57.5157 68.7957 57.4402 68.8301 57.3605 68.8331ZM58.9488 69.2111C58.869 69.2081 58.7935 69.1737 58.7381 69.1149C58.6827 69.0562 58.6517 68.9777 58.6517 68.8961C58.6517 68.8144 58.6827 68.7359 58.7381 68.6772C58.7935 68.6184 58.869 68.584 58.9488 68.5811C59.0285 68.584 59.104 68.6185 59.1593 68.6772C59.2147 68.736 59.2457 68.8144 59.2457 68.8961C59.2457 68.9777 59.2147 69.0561 59.1593 69.1149C59.104 69.1736 59.0285 69.2081 58.9488 69.2111ZM60.537 69.3623C60.4573 69.3594 60.3818 69.3249 60.3264 69.2661C60.271 69.2074 60.24 69.1289 60.24 69.0473C60.24 68.9656 60.271 68.8871 60.3264 68.8284C60.3818 68.7696 60.4573 68.7352 60.537 68.7323C60.6167 68.7352 60.6922 68.7697 60.7476 68.8285C60.8029 68.8872 60.8339 68.9656 60.8339 69.0473C60.8339 69.1289 60.8029 69.2073 60.7476 69.266C60.6922 69.3248 60.6167 69.3593 60.537 69.3623ZM67.1242 64.1753C67.0145 64.3322 66.8626 64.4533 66.6871 64.5239C66.5142 64.608 66.3351 64.6782 66.1515 64.7339C65.7862 64.8431 65.4169 64.9292 65.0454 65.0006C64.3399 65.1267 63.6281 65.2129 62.9133 65.2589C62.8913 65.2945 62.8673 65.3288 62.8415 65.3618C62.7697 65.6348 62.6958 65.9078 62.6178 66.1787C62.6676 66.1411 62.7284 66.1218 62.7902 66.1241C62.87 66.127 62.9455 66.1614 63.0009 66.2202C63.0563 66.2789 63.0873 66.3574 63.0873 66.4391C63.0873 66.5207 63.0563 66.5992 63.0009 66.658C62.9455 66.7167 62.87 66.7512 62.7902 66.7541C62.7288 66.7566 62.6682 66.7385 62.6178 66.7025C62.5674 66.6665 62.5299 66.6145 62.5111 66.5546C62.4352 66.8192 62.3572 67.0837 62.2752 67.3462C62.2752 67.3462 67.3725 67.4219 67.668 66.6659L67.1242 64.1753ZM64.12 66.5651C64.0402 66.5621 63.9647 66.5277 63.9093 66.4689C63.8539 66.4102 63.8229 66.3317 63.8229 66.2501C63.8229 66.1684 63.8539 66.0899 63.9093 66.0312C63.9647 65.9724 64.0402 65.938 64.12 65.9351C64.1997 65.938 64.2752 65.9724 64.3306 66.0312C64.386 66.09 64.417 66.1684 64.417 66.2501C64.417 66.3317 64.386 66.4102 64.3306 66.4689C64.2752 66.5277 64.1997 66.5621 64.12 66.5651ZM65.4128 66.3761C65.333 66.3731 65.2575 66.3387 65.2021 66.2799C65.1467 66.2212 65.1157 66.1427 65.1157 66.0611C65.1157 65.9794 65.1467 65.9009 65.2021 65.8422C65.2575 65.7834 65.333 65.749 65.4128 65.7461C65.4925 65.749 65.568 65.7835 65.6234 65.8422C65.6788 65.901 65.7097 65.9794 65.7097 66.0611C65.7097 66.1427 65.6787 66.2211 65.6234 66.2799C65.568 66.3387 65.4925 66.3731 65.4128 66.3761ZM66.7425 66.1115C66.6628 66.1086 66.5872 66.0741 66.5318 66.0153C66.4764 65.9566 66.4455 65.8781 66.4455 65.7965C66.4455 65.7148 66.4764 65.6364 66.5318 65.5776C66.5872 65.5188 66.6628 65.4844 66.7425 65.4815C66.8222 65.4844 66.8978 65.5188 66.9532 65.5776C67.0086 65.6363 67.0396 65.7148 67.0396 65.7965C67.0396 65.8781 67.0086 65.9566 66.9532 66.0154C66.8978 66.0741 66.8222 66.1086 66.7425 66.1115ZM65.1562 43.7591C63.1555 42.3269 55.1299 40.7561 50.1536 39.8888C48.9793 39.685 47.9004 39.0994 47.0769 38.2188C46.2534 37.3382 45.729 36.2095 45.5816 35L44.6335 35.0861C39.6778 54.467 32.668 44.6348 32.668 44.6348L32.7685 45.122C33.2938 47.3795 34.5415 49.2443 37.084 49.8071C37.084 49.8071 42.7723 51.8483 54.2228 50.5631L55.4048 50.4875C55.4048 50.4875 51.6208 59.4923 49.5031 63.6041L52.8418 64.7717C53.9561 65.1392 55.0437 65.6096 56.1867 65.8952C56.7567 66.0416 57.3372 66.1413 57.9227 66.1934C58.5031 66.2496 59.0867 66.2629 59.669 66.2333C60.2379 66.2129 60.8008 66.1068 61.3394 65.9183C61.8542 65.7361 62.2981 65.3893 62.6055 64.9292L62.6076 64.925C62.6295 64.894 62.6584 64.8688 62.6917 64.8515C62.7348 64.6247 62.7779 64.4 62.821 64.1732C63.0241 63.1211 63.2499 62.0732 63.4797 61.0253C63.7157 59.9816 63.9599 58.9358 64.2246 57.8984C64.4873 56.8589 64.7663 55.8236 65.0824 54.7967C65.0823 54.7967 68.1112 45.8759 65.1562 43.7591Z" fill="#12141D"/>
<path d="M48.3435 30.1445C48.4525 30.4282 48.5615 30.7119 48.668 30.9978C48.5133 31 48.3638 31 48.2142 31C48.1306 30.749 48.0469 30.498 47.9658 30.2449C47.502 28.8372 47.0693 27.4222 46.668 26C47.2586 27.3728 47.8171 28.7542 48.3435 30.1445Z" fill="#020202"/>
<path d="M50.668 42C50.461 40.69 50.2644 39.3716 50.0783 38.0449C49.9374 37.0494 49.8018 36.0497 49.668 35.05C49.7295 35.0333 49.7884 35.0167 49.8446 35C49.9704 35.9809 50.0944 36.964 50.2121 37.9491C50.3754 39.2925 50.5273 40.6428 50.668 42Z" fill="#020202"/>
<path d="M36.016 27.1546L35.1919 28.6665H35.1986C35.3798 28.7321 35.57 28.7736 35.7637 28.7895C36.0585 28.8166 36.4047 28.8396 36.7844 28.8542C36.5275 28.2869 36.2684 27.7218 36.016 27.1546ZM37.7135 27.2672L36.9407 28.8604C37.4522 28.8792 38.0217 28.8896 38.6047 28.8896L37.7135 27.2672ZM40.3067 28.8708L39.5808 27.3172L38.8013 28.8917C39.3038 28.8917 39.8153 28.8875 40.3111 28.8813C40.3111 28.8771 40.3089 28.875 40.3067 28.8708ZM41.1777 27.2776L40.4987 28.8688C40.497 28.8725 40.4948 28.876 40.492 28.8792C40.8628 28.8729 41.2224 28.8667 41.5597 28.8583L42.0645 28.8729L41.1777 27.2776ZM42.8574 27.165L42.2007 28.8688C42.1985 28.8708 42.1985 28.875 42.1962 28.8771L42.6385 28.8896C42.6385 28.8896 42.6407 28.8688 42.6452 28.8291C43.3733 28.8083 43.8446 28.7895 43.8446 28.7895L42.8574 27.165ZM44.4878 25.186C43.8446 22.108 44.0054 20.9068 44.0054 20.9068C44.042 20.5568 44.0531 20.205 44.0389 19.8537C43.9362 19.5784 44.0568 18.4481 44.0858 18.6066C44.1237 18.4163 44.1727 18.2002 44.2226 17.9913C44.2869 17.7214 44.2579 17.4394 44.1397 17.1859C44.0214 16.9324 43.8201 16.7204 43.5647 16.5805L38.8593 14C38.8593 14 33.7937 16.5525 33.3916 20.8317C32.9896 25.1109 32.668 30.6663 32.668 30.6663L34.8747 31L35.1919 28.6665L35.9825 27.0461C35.9859 27.0394 35.9913 27.0337 35.998 27.0297C36.0047 27.0257 36.0125 27.0236 36.0205 27.0236C36.0285 27.0236 36.0363 27.0257 36.043 27.0297C36.0497 27.0337 36.0551 27.0394 36.0585 27.0461V27.0482C36.331 27.5946 36.5968 28.143 36.8625 28.6915L37.622 27.0273C37.6323 27.006 37.6511 26.9892 37.6745 26.9806C37.6979 26.972 37.7239 26.9723 37.747 26.9815C37.7664 26.9895 37.7822 27.0035 37.7917 27.0211L37.794 27.0232L38.6963 28.6373L39.4825 27.0211C39.4884 27.0085 39.4969 26.9972 39.5076 26.9878C39.5182 26.9783 39.5307 26.9709 39.5445 26.9661C39.5582 26.9612 39.5728 26.959 39.5875 26.9595C39.6022 26.96 39.6166 26.9632 39.6299 26.969C39.6548 26.9803 39.6746 26.9995 39.6858 27.0232L40.4005 28.583L41.0772 27.0294H41.0795C41.0887 27.0076 41.1068 26.9901 41.1298 26.9807C41.1528 26.9713 41.1789 26.9708 41.2023 26.9794C41.2236 26.9882 41.241 27.0037 41.2515 27.0232L42.1248 28.6748L42.806 27.0482H42.8082C42.8101 27.0429 42.8132 27.038 42.8172 27.0338C42.8212 27.0296 42.826 27.0263 42.8315 27.0239C42.8369 27.0216 42.8428 27.0203 42.8488 27.0202C42.8548 27.0201 42.8608 27.0211 42.8663 27.0232C42.8758 27.0279 42.8836 27.0351 42.8887 27.044L43.8446 28.7895C43.8446 28.7895 45.1311 28.264 44.4878 25.186ZM36.016 21.4323C35.9506 21.8331 35.9252 22.2387 35.9401 22.6439C35.9423 22.8462 35.9691 23.0443 35.9848 23.2487C36.0071 23.4593 36.0272 23.672 36.0339 23.8868C36.0541 24.3231 36.0075 24.7599 35.8954 25.1839C35.8322 25.4054 35.7311 25.6159 35.5961 25.8074C35.5591 25.857 35.5188 25.9043 35.4755 25.9492L35.3638 26.0618C35.2919 26.1342 35.224 26.2101 35.1606 26.2891C35.0321 26.4451 34.9248 26.6153 34.8412 26.7959C34.7538 26.9792 34.685 27.1698 34.6357 27.3652C34.5669 27.5564 34.5528 27.7611 34.5947 27.9589C34.6366 28.1568 34.7331 28.341 34.8747 28.4934C34.6806 28.3724 34.5383 28.1916 34.4727 27.9825C34.4092 27.771 34.391 27.5499 34.4191 27.3318C34.4464 27.1173 34.4958 26.9057 34.5665 26.7C34.6404 26.4893 34.7441 26.2887 34.8747 26.1035C34.9372 26.0118 35.0065 25.9221 35.078 25.8366L35.1874 25.7136C35.2164 25.6802 35.2432 25.6427 35.27 25.6051C35.3715 25.4432 35.4447 25.2672 35.4867 25.0838C35.5762 24.6949 35.6108 24.2966 35.5894 23.8993C35.585 23.697 35.5693 23.4927 35.5515 23.2904C35.5403 23.0798 35.509 22.8629 35.518 22.6481C35.5196 22.2186 35.572 21.7906 35.6743 21.3718C35.8633 20.5385 36.2665 19.7605 36.8492 19.105C36.4246 19.828 36.1425 20.6163 36.016 21.4323ZM40.0922 17.1719C39.8421 17.249 39.5986 17.3366 39.3596 17.4305C38.875 17.614 38.4126 17.8329 37.8944 18.054C38.0362 17.8207 38.226 17.6159 38.4528 17.4513C38.676 17.2841 38.9234 17.1472 39.1877 17.0446C39.452 16.9397 39.7324 16.8742 40.0185 16.8507C40.3049 16.8218 40.5945 16.8481 40.8695 16.9279C40.597 17.0238 40.3402 17.0843 40.0922 17.1719Z" fill="#D1243A"/>
<path d="M49.4309 67C49.0403 68.0219 48.6295 69.0355 48.2239 70.0513L47.9136 70.8121C47.8065 71.0701 47.6805 71.3203 47.5364 71.5609C47.2338 71.9932 47.05 72.4929 47.0024 73.013C46.9881 73.256 47.0453 73.498 47.1674 73.7109C47.3086 73.9217 47.4885 74.1056 47.6982 74.2537C48.1379 74.5787 48.5989 74.8757 49.0785 75.1427C50.0415 75.6858 51.043 76.1803 52.0502 76.6461L51.8203 76.6986C52.234 76.1991 52.6538 75.7043 53.0742 75.2099L53.1155 75.4556C52.5763 75.0671 52.1634 74.5372 51.9257 73.9286C51.8059 73.6306 51.7295 73.318 51.6987 72.9996C51.6631 72.6783 51.6938 72.3534 51.7889 72.0436C51.8851 71.7417 52.0247 71.4543 52.2036 71.19L52.6894 70.3978C53.0129 69.8695 53.3362 69.3411 53.668 68.8172C53.385 69.3673 53.0936 69.9128 52.8023 70.4584L52.3661 71.2771C52.2944 71.4154 52.2157 71.5477 52.1569 71.6824C52.0962 71.8178 52.0473 71.9578 52.0108 72.1011C51.937 72.385 51.9221 72.6803 51.967 72.9698C52.0043 73.2627 52.0838 73.5491 52.203 73.8207C52.3205 74.0913 52.4754 74.3453 52.6635 74.5756C52.8455 74.8043 53.0612 75.0058 53.3037 75.1738L53.3058 75.1753C53.3248 75.1879 53.3411 75.204 53.3536 75.2228C53.3662 75.2415 53.3748 75.2624 53.379 75.2844C53.3832 75.3063 53.3829 75.3288 53.3781 75.3507C53.3733 75.3725 53.3641 75.3932 53.351 75.4116L53.3449 75.4196C52.9389 75.925 52.5323 76.4301 52.1196 76.9304C52.0928 76.9627 52.0557 76.9855 52.014 76.995C51.9723 77.0046 51.9285 77.0003 51.8896 76.9829C50.8616 76.5252 49.8583 76.0171 48.8836 75.4606C48.3885 75.1836 47.9156 74.8708 47.4689 74.5251C47.3554 74.4343 47.247 74.3377 47.1443 74.2356C47.0342 74.1282 46.94 74.0064 46.8645 73.8739C46.7162 73.6055 46.6496 73.3018 46.6723 72.9982C46.7384 72.4297 46.9537 71.887 47.2979 71.4218C47.5773 70.9563 47.822 70.472 48.0301 69.9727C48.4938 68.9805 48.9522 67.9861 49.4309 67Z" fill="#020202"/>
<path d="M44.668 75.6507L45.5965 74C45.5965 74 51.168 76.7761 51.3823 77.6765C51.3823 77.6765 52.4855 75.6642 51.9339 74.8641C51.9339 74.8641 58.0251 77.9766 58.668 80.3775C58.668 80.3775 58.668 83.5288 44.668 75.6507Z" fill="#D1243A"/>
<path d="M53.7437 36.8473L53.7744 37.0679C53.7781 37.1408 53.7945 37.2125 53.8228 37.2797C53.8788 37.4122 53.9819 37.5187 54.1118 37.5782C54.1749 37.6067 54.2427 37.623 54.3117 37.6261C54.3764 37.6281 54.4668 37.6219 54.5431 37.6202L55.0207 37.6036C55.6575 37.5792 56.2943 37.561 56.9311 37.5489C58.2048 37.5244 59.4784 37.4838 60.752 37.4726C63.2993 37.4402 65.8466 37.4192 68.3939 37.4596L68.8612 37.4691C68.9364 37.4685 69.0099 37.4463 69.0731 37.4052C69.1363 37.3641 69.1866 37.3056 69.2182 37.2367C69.242 37.1811 69.2569 37.1219 69.2624 37.0615L69.3406 36.5855L69.6539 34.6813L69.9681 32.7773L70.2613 30.8702C70.6426 28.3261 70.9615 25.773 71.2673 23.218C71.2929 23.0761 71.3038 22.9318 71.3 22.7876C71.2827 22.6744 71.2226 22.5724 71.1325 22.5029C71.0463 22.4352 70.9379 22.403 70.8291 22.4127C70.7204 22.4224 70.6192 22.4732 70.546 22.5551C70.5113 22.5949 70.4843 22.6409 70.4665 22.6908C70.4479 22.75 70.437 22.8114 70.434 22.8735L70.3791 23.3528L70.2643 24.3108C70.1124 25.5883 69.9592 26.8656 69.7954 28.1414C69.4746 30.694 69.1576 33.2472 68.8062 35.7956L68.7725 36.0344C68.7658 36.0878 68.7558 36.1407 68.7425 36.1928C68.7271 36.2519 68.706 36.3093 68.6794 36.3641C68.5732 36.5858 68.3879 36.7585 68.1607 36.8477C68.0505 36.8901 67.9337 36.9122 67.8157 36.9131L67.5769 36.9166L67.0992 36.9236C66.4622 36.9336 65.8253 36.9429 65.1882 36.9452L61.3662 36.9704C60.0922 36.9792 58.8181 36.9668 57.5443 36.966C57.2275 36.9631 56.9035 36.9688 56.5927 36.9581L55.6604 36.9223L53.7437 36.8473ZM53.6998 36.8029L55.604 36.7279L56.5821 36.6921L57.5407 36.6486C58.8135 36.5931 60.0861 36.5259 61.3589 36.4801L65.177 36.3412C65.8133 36.3161 66.4497 36.2981 67.0861 36.2807L67.5634 36.2672L67.802 36.2605C67.8437 36.2604 67.885 36.2524 67.9237 36.2369C67.9962 36.2068 68.0547 36.1501 68.0876 36.0783C68.0959 36.0609 68.1023 36.0426 68.1066 36.0237C68.1125 35.9977 68.1167 35.9714 68.1193 35.9449L68.1498 35.7057C68.483 33.1548 68.8507 30.6086 69.2145 28.0619C69.3931 26.788 69.5823 25.5157 69.7726 24.2434L69.9146 23.2892L69.9881 22.8124C69.9992 22.7142 70.0228 22.6178 70.0584 22.5257C70.0998 22.4258 70.1595 22.3348 70.2342 22.2572C70.3838 22.1024 70.586 22.0108 70.8 22.001C71.0112 21.9908 71.2184 22.0624 71.3792 22.2012C71.5387 22.3375 71.6404 22.5303 71.6635 22.74C71.6728 22.8366 71.6677 22.9341 71.6483 23.0292L71.6095 23.2673C71.1966 25.8068 70.7969 28.3483 70.4594 30.8987L70.2137 32.8126L69.9888 34.7295L69.7632 36.6463L69.7065 37.1255C69.6988 37.2256 69.6768 37.3242 69.6412 37.418C69.6005 37.5202 69.5408 37.6137 69.4654 37.6934C69.312 37.8554 69.1034 37.9528 68.8818 37.9658L68.3939 37.9778C65.8466 38.0182 63.2994 37.9972 60.752 37.9648C59.4784 37.9536 58.2048 37.913 56.9311 37.8885C56.2943 37.8771 55.6575 37.8589 55.0207 37.8338L54.5431 37.8172C54.4602 37.8131 54.3912 37.8147 54.2969 37.8059C54.207 37.7955 54.1197 37.768 54.0398 37.725C53.9217 37.6626 53.8239 37.5672 53.7581 37.4501C53.6924 37.333 53.6615 37.1992 53.6691 37.0648C53.6764 36.9719 53.6896 36.8827 53.6998 36.8029Z" fill="#020202"/>
<path d="M50.1734 9.49866C50.1734 9.49866 46.5069 9.60852 45.5997 9.13246C45.5997 9.13246 45.9021 7.85077 44.9193 7.96063C43.9365 8.0705 44.3082 9.93809 44.8027 9.93809C44.8027 9.93809 43.3695 11.3296 42.1222 10.9268C42.1222 10.9268 40.1551 5.72684 44.4083 4.37191C48.6615 3.01699 49.6064 5.80008 49.6064 5.80008C49.6064 5.80008 53.84 7.81416 50.1734 9.49866Z" fill="#020202"/>
<path d="M42.3861 10.3427C42.4785 10.0992 42.6275 9.89079 42.8162 9.74125C43.0032 9.59232 43.2092 9.47879 43.4265 9.40484C43.6431 9.3301 43.8645 9.27653 44.0886 9.24467C44.314 9.21174 44.5411 9.19888 44.7681 9.20623C44.7899 9.20704 44.8105 9.21786 44.8255 9.23634C44.8405 9.25482 44.8486 9.27947 44.8482 9.30492C44.8477 9.33037 44.8386 9.35458 44.823 9.37228C44.8073 9.38999 44.7863 9.39976 44.7645 9.39947L44.761 9.39942C44.7097 9.39597 44.6597 9.37979 44.6142 9.35196C44.5686 9.32412 44.5287 9.28528 44.4971 9.238C44.441 9.16137 44.3943 9.07598 44.3584 8.9843C44.2888 8.80922 44.2406 8.62352 44.2155 8.43271C44.1874 8.2396 44.1843 8.04267 44.2062 7.84847C44.2258 7.63381 44.3007 7.43115 44.421 7.26726C44.4896 7.18047 44.5735 7.11219 44.6669 7.06717C44.757 7.02708 44.8522 7.0047 44.9486 7.00095C45.0485 6.99551 45.1484 7.01345 45.2423 7.05371C45.3442 7.09844 45.4338 7.17475 45.5015 7.27445C45.6145 7.45601 45.678 7.67327 45.6835 7.8977C45.6935 8.09864 45.6812 8.30024 45.647 8.4975L45.5524 8.25335C45.6731 8.31645 45.8007 8.35971 45.9316 8.38189C46.0723 8.41095 46.2187 8.42961 46.366 8.4439C46.6609 8.47392 46.9611 8.48797 47.2622 8.49467C47.8661 8.50723 48.4689 8.49898 49.0883 8.5213C49.1665 8.52536 49.2448 8.53042 49.3281 8.54109C49.3739 8.54648 49.4194 8.55529 49.4643 8.56749C49.5028 8.57761 49.5395 8.59514 49.5731 8.61935C49.5944 8.6359 49.6132 8.65651 49.6286 8.68033C49.6529 8.71853 49.6666 8.76445 49.6679 8.81197C49.6692 8.85949 49.658 8.90635 49.636 8.9463L49.6277 8.96156C49.5613 9.10283 49.506 9.2509 49.4627 9.4039C49.3624 9.72185 49.2909 10.0512 49.2494 10.3866C49.2425 10.4453 49.243 10.5049 49.2508 10.5634L49.3384 10.8066L49.4271 11.0519L49.472 11.1771C49.5031 11.2654 49.5144 11.3616 49.5047 11.4564C49.4951 11.5512 49.4649 11.6415 49.417 11.7189C49.3542 11.8188 49.2647 11.8914 49.1626 11.9251L48.7261 12.0795L48.8 11.9998C48.6351 12.407 48.4414 12.7973 48.221 13.1669C48.1103 13.3531 47.9866 13.5284 47.8512 13.6908C47.7143 13.8612 47.5495 13.9977 47.3666 14.0924C47.1762 14.1685 46.9726 14.1874 46.7743 14.1476C46.583 14.1153 46.3948 14.0616 46.2123 13.9873C45.8504 13.8414 45.5 13.6594 45.1649 13.4432L45.2447 13.4254C44.7032 14.254 44.1837 15.1028 43.6508 15.9393C43.6347 15.9646 43.6123 15.9833 43.5866 15.9929C43.5609 16.0024 43.5334 16.0024 43.5077 15.9927L43.5066 15.9922C43.1456 15.8397 42.7995 15.6428 42.4741 15.4049C42.1491 15.1854 41.8369 14.9453 41.5246 14.7064C40.9051 14.2192 40.3023 13.7062 39.7161 13.1674L39.7096 13.1614C39.6984 13.151 39.689 13.1382 39.6819 13.1236C39.6749 13.109 39.6704 13.0929 39.6687 13.0762C39.667 13.0596 39.6682 13.0427 39.672 13.0266C39.6759 13.0105 39.6825 12.9954 39.6914 12.9823C39.6985 12.9717 39.707 12.9625 39.7166 12.955C40.2021 12.5768 40.681 12.1808 41.1465 11.7666C41.38 11.5603 41.6036 11.3393 41.8212 11.1114C42.0437 10.8923 42.2344 10.6327 42.3861 10.3427ZM42.42 10.36C42.2687 10.6575 42.0781 10.9253 41.8552 11.1534C41.6464 11.3958 41.4241 11.6204 41.2054 11.8502C40.7647 12.3058 40.3111 12.7417 39.847 13.1677L39.8474 12.9554L41.7079 14.3833C42.0157 14.6238 42.3281 14.8556 42.6393 15.0864C42.7951 15.2011 42.9531 15.3111 43.1107 15.4182C43.2621 15.5252 43.4207 15.6176 43.585 15.6945L43.4408 15.7473C44.0081 14.9422 44.5888 14.1494 45.1474 13.3364C45.1567 13.3228 45.1699 13.3135 45.1846 13.3103C45.1992 13.307 45.2144 13.31 45.2273 13.3186C45.5505 13.5399 45.8927 13.7212 46.2482 13.8594C46.4243 13.9272 46.6055 13.975 46.7895 14.0023C46.9664 14.035 47.1475 14.0155 47.3163 13.9457C47.4786 13.8558 47.6222 13.7256 47.737 13.5641C47.8593 13.4025 47.9699 13.2293 48.0678 13.0464C48.2653 12.6782 48.435 12.2905 48.5746 11.8878C48.5809 11.87 48.5903 11.8539 48.6021 11.8405C48.614 11.8272 48.6281 11.8169 48.6436 11.8102L48.6486 11.8081L49.0772 11.6257C49.1211 11.6107 49.1593 11.5784 49.1852 11.5343C49.2111 11.4902 49.2231 11.4369 49.2193 11.3836C49.2172 11.3585 49.2115 11.334 49.2025 11.3112L49.1555 11.1927L49.0592 10.9513L48.9623 10.7075C48.941 10.6458 48.9292 10.5802 48.9274 10.5137C48.925 10.4618 48.9253 10.4097 48.9283 10.3577C48.9608 9.98776 49.0305 9.62354 49.136 9.27261C49.1847 9.08705 49.2493 8.90772 49.329 8.7374C49.3308 8.7338 49.34 8.71768 49.3357 8.72442C49.3209 8.75107 49.3128 8.78206 49.3125 8.81383C49.3114 8.85505 49.3223 8.89547 49.3432 8.92866C49.3524 8.94416 49.3642 8.95732 49.3779 8.96735C49.3995 8.98253 49.3887 8.97416 49.3802 8.97321C49.3508 8.96653 49.3211 8.96182 49.2913 8.95912C49.2233 8.95202 49.1498 8.94879 49.0761 8.94684C48.48 8.93582 47.8668 8.97173 47.2551 8.95452C46.9485 8.94796 46.6408 8.93661 46.3302 8.90331C46.1749 8.88502 46.019 8.86232 45.8609 8.82648C45.691 8.79361 45.5262 8.73179 45.3718 8.64298C45.3358 8.62101 45.307 8.58591 45.2896 8.54302C45.2723 8.50014 45.2675 8.45182 45.2759 8.40543L45.2772 8.39877C45.3316 8.09984 45.3363 7.71777 45.2205 7.53038C45.1889 7.4841 45.1481 7.44766 45.1016 7.42431C45.0551 7.40097 45.0044 7.39144 44.9539 7.39658C44.8981 7.39092 44.8419 7.39879 44.7888 7.41972C44.7356 7.44064 44.6868 7.47416 44.6453 7.51817C44.5647 7.64259 44.5062 7.78463 44.4733 7.9359C44.4404 8.08717 44.4338 8.2446 44.4539 8.3989C44.464 8.56678 44.4943 8.73218 44.5438 8.89023C44.5884 9.04086 44.6805 9.19918 44.761 9.20586L44.7539 9.39905C44.5362 9.37338 44.3172 9.36694 44.0986 9.37979C43.8786 9.38927 43.6601 9.42536 43.4464 9.48748C43.2322 9.54627 43.0283 9.64781 42.8436 9.78763C42.6593 9.92833 42.5126 10.1266 42.42 10.36Z" fill="#020202"/>
<path d="M45.2089 10L45.1155 10.7807C45.0879 11.0344 45.081 11.2889 45.0949 11.5431C45.1067 11.7934 45.1537 12.0425 45.2354 12.2874C45.332 12.5358 45.4773 12.7752 45.668 13C45.3335 12.8306 45.0752 12.6071 44.9195 12.3524C44.7685 12.0966 44.6843 11.8265 44.6704 11.553C44.6574 11.2837 44.697 11.0143 44.7882 10.7513C44.8709 10.489 45.0126 10.2359 45.2089 10Z" fill="#020202"/>
<path d="M42.1372 7C42.1372 7 39.1142 5.19871 41.7406 3.62085C44.367 2.043 44.668 3.97041 44.668 3.97041" fill="#020202"/>
<path d="M33.5117 19.2603C32.6419 19.169 31.7646 19.173 30.8956 19.272C30.0349 19.3619 29.1907 19.5685 28.3869 19.8861L28.0904 20.0086L27.8055 20.1542C27.7119 20.2046 27.6131 20.2461 27.5238 20.3037L27.2548 20.4736C26.8999 20.6929 26.5795 20.9627 26.3038 21.2742C25.7565 21.8992 25.4006 22.6656 25.2778 23.4836C25.2152 23.8896 25.2098 24.3022 25.2616 24.7096C25.3152 25.1041 25.4265 25.5444 25.507 25.9684C25.6803 26.8226 25.8532 27.677 26.014 28.5337C26.3409 30.2483 26.6252 31.964 26.969 33.6707C27.6391 37.0902 28.4543 40.4801 29.3266 43.8552C30.2037 47.2294 31.0588 50.6086 31.8919 53.9927L31.6371 53.7564C32.5534 53.9005 33.4763 54.0336 34.3976 54.161C35.319 54.2918 36.2408 54.4202 37.1637 54.5391C39.0082 54.7878 40.8554 55.0092 42.7056 55.2034C44.5554 55.3959 46.4102 55.5364 48.2655 55.5984C49.1917 55.63 50.1189 55.6121 51.0432 55.5446C51.5034 55.5126 51.9603 55.445 52.4098 55.3425C52.6325 55.2899 52.8502 55.2183 53.0604 55.1287C53.2715 55.0446 53.46 54.9131 53.611 54.7446C53.6136 54.7413 53.6168 54.7386 53.6205 54.7365C53.6241 54.7345 53.6282 54.7331 53.6324 54.7326C53.6365 54.7321 53.6408 54.7324 53.6448 54.7335C53.6489 54.7346 53.6527 54.7365 53.656 54.7391C53.6623 54.7443 53.6664 54.7515 53.6676 54.7595C53.6688 54.7675 53.667 54.7757 53.6625 54.7824C53.5175 54.9732 53.3297 55.1281 53.1138 55.2347C52.9031 55.3438 52.6825 55.4331 52.455 55.5015C52.0026 55.6356 51.5404 55.7345 51.0725 55.7972C50.1412 55.919 49.2031 55.984 48.2637 55.9917C46.3881 56.0317 44.5175 55.9209 42.6524 55.7859C40.7866 55.651 38.9283 55.4443 37.0742 55.2123C36.148 55.09 35.2225 54.9632 34.2987 54.8247C33.375 54.6819 32.4543 54.5341 31.531 54.3738L31.5274 54.3732C31.4668 54.3626 31.4106 54.3346 31.366 54.2927C31.3213 54.2507 31.2901 54.1968 31.2762 54.1374C30.4839 50.7426 29.7277 47.3397 29.0077 43.9287C28.2856 40.5179 27.5038 37.1207 26.6622 33.7372C26.4539 32.891 26.2506 32.0403 26.059 31.1889C25.8678 30.3389 25.6661 29.491 25.4834 28.6395C25.2952 27.789 25.1191 26.9362 24.9433 26.0833C24.858 25.6524 24.7626 25.2443 24.7006 24.7753C24.6477 24.3167 24.6592 23.8531 24.7348 23.3976C24.886 22.4827 25.3038 21.6315 25.9371 20.9483C26.2496 20.61 26.6146 20.3231 27.0185 20.0987L27.3138 19.9298C27.4118 19.8728 27.5184 19.8326 27.6201 19.7834L27.9284 19.6426L28.2463 19.5265C29.0911 19.2256 29.9772 19.0535 30.8743 19.0159C31.7615 18.9678 32.6514 19.0289 33.5234 19.1979C33.5314 19.1996 33.5385 19.2042 33.5432 19.2109C33.5478 19.2176 33.5497 19.2258 33.5485 19.2338C33.5472 19.2419 33.5429 19.2491 33.5364 19.2541C33.5299 19.259 33.5217 19.2613 33.5135 19.2605L33.5117 19.2603Z" fill="#020202"/>
<path d="M33.407 48.9777C32.9401 47.5219 32.5232 46.0543 32.1371 44.5795C31.7512 43.1047 31.3818 41.6259 31.0713 40.1338L30.6395 37.8879C30.5001 37.1383 30.3596 36.389 30.2003 35.6439C29.887 34.1525 29.5095 32.6758 29.1534 31.1901C28.7863 29.7101 28.4351 28.2275 28.1105 26.7397L27.8648 25.6243C27.7675 25.2376 27.7038 24.8434 27.6746 24.446C27.6317 23.6268 27.7977 22.8101 28.1574 22.0703C28.5242 21.3324 29.0806 20.7019 29.7713 20.2413C30.4468 19.8086 31.19 19.4883 31.9711 19.2934C33.5032 18.9217 35.1017 18.9029 36.6424 19.2385C36.6504 19.2402 36.6575 19.2448 36.6622 19.2514C36.6669 19.2581 36.6688 19.2662 36.6676 19.2742C36.6664 19.2822 36.6622 19.2894 36.6558 19.2944C36.6494 19.2995 36.6413 19.3019 36.6331 19.3012L36.6307 19.3011C35.1083 19.1665 33.5739 19.3271 32.1142 19.7739C31.4067 19.998 30.7376 20.3259 30.1294 20.7467C29.5484 21.1652 29.0837 21.7211 28.7784 22.3632C28.4734 23.0058 28.3256 23.7098 28.3469 24.4188C28.3637 24.7816 28.4121 25.1422 28.4917 25.4967L28.7054 26.6197C28.9934 28.1164 29.2547 29.6183 29.5002 31.1228C29.7448 32.6239 30.0462 34.1159 30.4045 35.5987L30.687 36.7063L30.99 37.8092L31.595 40.015C31.9786 41.4899 32.3082 42.9771 32.6244 44.4676C32.9404 45.9581 33.2287 47.4551 33.4698 48.9632C33.4711 48.9711 33.4692 48.9792 33.4647 48.9859C33.4601 48.9926 33.4532 48.9973 33.4452 48.9992C33.4373 49.001 33.4289 48.9998 33.4218 48.9958C33.4147 48.9919 33.4094 48.9854 33.407 48.9777Z" fill="#020202"/>
<path d="M30.668 45C31.1146 45.6222 31.548 46.2369 31.989 46.8387C32.43 47.4398 32.8843 48.0187 33.3558 48.5682C33.8217 49.1177 34.3275 49.6148 34.867 50.0536C35.4121 50.4988 36.0241 50.8087 36.668 50.9656C35.9743 51.0753 35.2698 50.9211 34.6511 50.5245C34.0306 50.1477 33.4618 49.6567 32.9646 49.0688C32.4718 48.4924 32.0287 47.8565 31.6419 47.1708C31.2489 46.4958 30.922 45.7673 30.668 45Z" fill="#020202"/>
<path d="M32.0165 54.0412C31.3402 56.1152 30.639 58.1791 29.9129 60.2327L28.8241 63.3134C28.4629 64.3407 28.0923 65.3646 27.7122 66.3851C26.9497 68.4252 26.1604 70.4576 25.4723 72.5239C25.1351 73.5589 24.8159 74.6001 24.5408 75.6518C24.4065 76.1781 24.2722 76.7051 24.1747 77.2372C24.0564 77.7543 23.9986 78.2832 24.0024 78.8135L23.6835 78.7548C24.5799 76.7204 25.4784 74.6866 26.3967 72.6626L29.1421 66.5866L31.9344 60.5337C32.394 59.5228 32.8714 58.5186 33.3147 57.5011C33.7696 56.4873 34.2141 55.4716 34.6061 54.4326L34.6067 54.4309C34.6095 54.4233 34.6152 54.4171 34.6226 54.4136C34.6299 54.4101 34.6384 54.4096 34.6461 54.4121C34.6539 54.4146 34.6604 54.4199 34.6642 54.4271C34.6681 54.4342 34.669 54.4425 34.6668 54.4503C34.5165 54.9856 34.3641 55.5244 34.1757 56.0478L33.9055 56.8389L33.6135 57.6211C33.4198 58.1433 33.2201 58.6628 33.0143 59.1798C32.8113 59.6979 32.6107 60.2174 32.3951 60.7301C31.5583 62.7926 30.6635 64.8296 29.7601 66.8624C28.8478 68.8914 27.8897 70.8992 26.9346 72.9081C25.9803 74.9174 24.9925 76.9109 23.9869 78.8963L23.98 78.91C23.9634 78.9427 23.9361 78.969 23.9026 78.9846C23.8691 79.0001 23.8313 79.0041 23.7953 78.9957C23.7592 78.9874 23.7271 78.9673 23.704 78.9386C23.6809 78.9099 23.6682 78.8744 23.668 78.8377C23.6851 78.2783 23.7692 77.7229 23.9187 77.1833C24.0463 76.6498 24.1892 76.1229 24.3386 75.5977C24.6372 74.5478 24.9546 73.5047 25.2737 72.4621C25.9051 70.3749 26.5291 68.2839 27.2108 66.2117C27.9037 64.1435 28.6649 62.0993 29.4537 60.066C30.2434 58.033 31.0701 56.014 31.9573 54.0188C31.9606 54.0114 31.9667 54.0055 31.9742 54.0024C31.9817 53.9993 31.9901 53.9992 31.9977 54.0021C32.0053 54.005 32.0115 54.0106 32.015 54.0179C32.0185 54.0252 32.019 54.0335 32.0165 54.0412Z" fill="#020202"/>
<path d="M37.588 55.031C37.6054 56.3444 37.5656 57.6528 37.5176 58.9604C37.4923 59.6141 37.4618 60.2673 37.426 60.9201C37.3946 61.5732 37.3518 62.2255 37.2974 62.877C37.1914 64.1801 37.0266 65.4803 36.9502 66.7858C36.9121 67.4384 36.89 68.0919 36.8879 68.7449C36.8909 69.0713 36.8903 69.3977 36.9093 69.7222C36.9182 69.8842 36.929 70.046 36.9453 70.2046C36.9537 70.2837 36.9634 70.3626 36.9768 70.4364C36.9828 70.4708 36.9906 70.5049 37.0003 70.5383C37.0032 70.549 37.0072 70.5594 37.0123 70.5692C37.0141 70.5731 37.0134 70.5691 37.0083 70.5623C36.9991 70.5504 36.9878 70.5406 36.9749 70.5334C36.962 70.5262 36.9479 70.5218 36.9333 70.5205L37.0569 70.6205C37.0617 70.6284 37.0809 70.6571 37.0898 70.66C37.1013 70.6664 37.0977 70.6636 37.096 70.6598C37.1255 70.6385 37.1526 70.6136 37.1765 70.5856C37.2643 70.4659 37.3379 70.3355 37.3956 70.1973C37.5204 69.8952 37.6275 69.5856 37.7163 69.27C37.9011 68.6326 38.0618 67.9818 38.2106 67.3276C38.5042 66.0172 38.7526 64.6922 39.0046 63.3674L39.7804 59.3919C40.0436 58.0661 40.3098 56.7397 40.6087 55.4175C40.6104 55.4098 40.6148 55.403 40.6211 55.3986C40.6274 55.3941 40.635 55.3924 40.6425 55.3936C40.65 55.3948 40.6568 55.3989 40.6615 55.4051C40.6662 55.4113 40.6685 55.4191 40.6679 55.427C40.5644 56.7811 40.4251 58.1305 40.2497 59.4751C40.0785 60.8204 39.8734 62.1607 39.6342 63.496C39.3863 64.8295 39.0981 66.1562 38.7522 67.4718C38.5779 68.1293 38.3937 68.7856 38.1556 69.4293C38.0394 69.7567 37.9007 70.075 37.7407 70.3817C37.6548 70.5476 37.5486 70.701 37.4245 70.8381C37.3378 70.9361 37.2175 70.9943 37.0897 71C37.01 70.9974 36.9342 70.9638 36.8771 70.9057C36.8301 70.8593 36.7936 70.8025 36.7703 70.7395L36.8939 70.8395C36.8453 70.8316 36.8014 70.8047 36.7711 70.7643C36.7574 70.7461 36.7461 70.726 36.7373 70.7047C36.726 70.6773 36.7171 70.6489 36.7108 70.6199C36.7009 70.5741 36.6936 70.5278 36.6889 70.4812C36.6792 70.3932 36.6751 70.309 36.6721 70.225C36.6667 70.0573 36.6674 69.892 36.6698 69.727C36.6773 69.3973 36.6811 69.0694 36.6942 68.7416L36.7489 66.7771C36.7774 65.4679 36.7503 64.1549 36.7935 62.8456C36.8134 62.191 36.8486 61.5373 36.899 60.8846C36.9438 60.2316 36.9967 59.5792 37.0577 58.9275C37.1817 57.6243 37.321 56.3223 37.5283 55.0262C37.5296 55.0185 37.5335 55.0115 37.5394 55.0067C37.5454 55.0018 37.5528 54.9995 37.5603 55.0001C37.5678 55.0007 37.5748 55.0042 37.5799 55.0099C37.585 55.0156 37.5879 55.0231 37.588 55.031Z" fill="#020202"/>
<path d="M56.7168 69.0201C56.9956 69.8899 57.2237 70.776 57.442 71.6652C57.6564 72.5558 57.8634 73.4484 58.0236 74.3571C58.1805 75.2668 58.2984 76.1909 58.4931 77.0879C58.5877 77.5373 58.6948 77.9818 58.8143 78.4214C58.8717 78.6418 58.9401 78.8578 59.0067 79.0726C59.0404 79.1797 59.0751 79.2863 59.1115 79.3893C59.1295 79.4408 59.1482 79.492 59.1675 79.5383C59.1771 79.5627 59.1872 79.5824 59.1962 79.6015C59.1997 79.6065 59.2063 79.6178 59.2063 79.6178C59.2052 79.6143 59.2035 79.6113 59.2012 79.609C59.1991 79.6066 59.2032 79.612 59.1961 79.6034C59.1889 79.5952 59.1809 79.5882 59.1722 79.5827C59.1545 79.5713 59.1347 79.566 59.1149 79.5675C59.1103 79.5679 59.106 79.5706 59.1029 79.575C59.0998 79.5794 59.0982 79.5851 59.0984 79.591C59.0986 79.5969 59.1006 79.6024 59.104 79.6065C59.1074 79.6105 59.1119 79.6127 59.1165 79.6125L59.208 79.6098C59.2115 79.6097 59.235 79.6138 59.2231 79.6073C59.2128 79.6053 59.2072 79.6092 59.2162 79.5927C59.2403 79.5188 59.2543 79.4404 59.2575 79.3606C59.2692 79.1524 59.2673 78.9434 59.2517 78.7356C59.2249 78.304 59.1734 77.8657 59.1148 77.4289C58.9916 76.5549 58.8382 75.6825 58.6924 74.8068C58.5508 73.9296 58.3996 73.053 58.2628 72.1705C58.1243 71.2885 57.9894 70.4036 57.8794 69.5086C57.8784 69.5008 57.8797 69.4928 57.8831 69.4861C57.8864 69.4794 57.8916 69.4746 57.8976 69.4725C57.9036 69.4704 57.9101 69.4712 57.9156 69.4747C57.9212 69.4782 57.9256 69.4842 57.9279 69.4916C58.193 70.3326 58.4314 71.1844 58.6431 72.0469C58.8579 72.9083 59.048 73.7792 59.2134 74.6596C59.3776 75.5438 59.5037 76.4387 59.591 77.3403C59.6383 77.7974 59.664 78.2576 59.668 78.7186C59.6686 78.9608 59.65 79.2024 59.6126 79.4398C59.5916 79.5837 59.5461 79.7201 59.4793 79.8393C59.4523 79.8839 59.4185 79.9211 59.3798 79.9485C59.3412 79.976 59.2985 79.9931 59.2544 79.9989C59.2103 80.0032 59.166 79.9948 59.1248 79.9743C59.0872 79.9564 59.0523 79.9305 59.0216 79.8977L59.1147 79.94C59.0767 79.937 59.0403 79.9194 59.0104 79.8894C59.0064 79.8855 59.0027 79.881 58.9994 79.876C58.9898 79.8625 58.9807 79.8484 58.9723 79.8337C58.9599 79.8099 58.955 79.7954 58.9464 79.7757C58.9347 79.743 58.9234 79.7111 58.9153 79.6818C58.897 79.622 58.8818 79.565 58.8673 79.5076C58.8383 79.3932 58.8124 79.28 58.7875 79.1666L58.6436 78.4882C58.5478 78.0373 58.4477 77.5892 58.3393 77.144C58.1285 76.2516 57.8548 75.3813 57.625 74.4949C57.3989 73.6074 57.2252 72.7018 57.0626 71.793C56.9041 70.8828 56.7585 69.9683 56.6682 69.0361C56.6674 69.0284 56.6689 69.0205 56.6724 69.0141C56.6758 69.0076 56.681 69.003 56.687 69.001C56.6929 68.9991 56.6992 68.9999 56.7047 69.0034C56.7102 69.0069 56.7145 69.0129 56.7168 69.0201Z" fill="#020202"/>
<path d="M74.3864 41.0292C74.5173 44.176 74.5752 47.3229 74.6256 50.4697C74.6648 53.6166 74.6872 56.7634 74.6459 59.9102L74.5483 64.6305C74.5117 66.2039 74.4775 67.7774 74.4659 69.3508C74.4518 70.9242 74.4643 72.4976 74.4756 74.071L74.4832 75.2511L74.4931 75.8411L74.4957 75.9886C74.4961 76.045 74.4912 76.1012 74.4811 76.1569C74.4598 76.2697 74.4142 76.3782 74.3469 76.477C74.2099 76.6774 73.9913 76.8278 73.7327 76.8997C73.6064 76.9326 73.4749 76.9482 73.3429 76.946L72.9971 76.9504L71.6136 76.9681L70.2302 76.9885L69.5385 76.9987L69.4511 76.9999C69.4156 77.0003 69.3798 76.9992 69.344 76.9968C69.2714 76.992 69.1996 76.9812 69.1294 76.9645C68.9911 76.9309 68.8605 76.8772 68.7436 76.8058C68.5049 76.6581 68.3393 76.4399 68.2791 76.1936C68.2646 76.1331 68.2561 76.0716 68.2537 76.0099L68.2475 75.8625L68.2354 75.5676L68.1939 74.388L68.0378 69.6695C67.9437 66.5236 67.8444 63.3778 67.7845 60.2313C67.681 53.9382 67.6239 47.6443 67.7097 41.3482C67.7098 41.3403 67.7135 41.3328 67.72 41.3272C67.7265 41.3216 67.7353 41.3184 67.7445 41.3182C67.7537 41.3181 67.7626 41.321 67.7694 41.3264C67.7761 41.3318 67.7801 41.3392 67.7806 41.347C68.1445 47.636 68.3656 53.9272 68.5403 60.2192C68.6195 63.3654 68.6593 66.5121 68.7043 69.6588L68.7562 74.3791L68.7662 75.5593L68.767 75.8544L68.7672 76.0019C68.767 76.0385 68.7704 76.075 68.7774 76.1112C68.8065 76.2554 68.8975 76.3851 69.0328 76.4751C69.1021 76.5203 69.1798 76.5553 69.2627 76.5785C69.3033 76.5895 69.345 76.5971 69.3873 76.6012C69.409 76.6034 69.4309 76.6047 69.4529 76.6052L69.5385 76.6065L70.2302 76.6167L71.6136 76.6371L72.9971 76.6548L73.3429 76.6592C73.4418 76.6646 73.5411 76.6561 73.6368 76.6341C73.7762 76.5991 73.9016 76.532 73.9993 76.4402C74.097 76.3485 74.1633 76.2356 74.1909 76.1139C74.1999 76.0725 74.205 76.0307 74.2063 75.9886L74.2089 75.8411L74.2187 75.2511L74.2263 74.071C74.2377 72.4976 74.2502 70.9242 74.2361 69.3508C74.2244 67.7774 74.1902 66.2039 74.1537 64.6305L74.056 59.9102C74.0148 56.7634 74.0371 53.6166 74.0763 50.4697C74.1268 47.3229 74.1847 44.176 74.3155 41.0292C74.3159 41.0213 74.3197 41.0139 74.3264 41.0085C74.333 41.003 74.3418 41 74.351 41C74.3602 41 74.369 41.003 74.3756 41.0085C74.3822 41.0139 74.3861 41.0213 74.3864 41.0292Z" fill="#020202"/>
<path d="M83.8346 37H58.5013C58.0411 37 57.668 37.457 57.668 38.0207V39.9793C57.668 40.543 58.0411 41 58.5013 41H83.8346C84.2949 41 84.668 40.543 84.668 39.9793V38.0207C84.668 37.457 84.2949 37 83.8346 37Z" fill="#020202"/>
<path d="M48.668 13.5003C48.6676 13.6242 48.6211 13.7436 48.5376 13.8354C48.454 13.9273 48.3392 13.9851 48.2153 13.9977C48.1474 14.0043 48.0788 13.9969 48.0138 13.9759C47.9488 13.955 47.8889 13.921 47.8377 13.876C47.7844 13.8289 47.7417 13.771 47.7124 13.7062C47.6831 13.6414 47.668 13.5712 47.668 13.5002C47.6679 13.4292 47.683 13.3589 47.7122 13.2941C47.7414 13.2293 47.7841 13.1714 47.8374 13.1242C47.8886 13.0791 47.9486 13.045 48.0136 13.0241C48.0786 13.0031 48.1473 12.9957 48.2153 13.0024C48.3392 13.0151 48.454 13.073 48.5376 13.1649C48.6212 13.2568 48.6676 13.3763 48.668 13.5003ZM48.668 13.5003C48.6676 13.4417 48.6547 13.3838 48.6303 13.3305C48.6058 13.2772 48.5702 13.2297 48.526 13.1911C48.4836 13.1548 48.4341 13.1277 48.3806 13.1115C48.3271 13.0954 48.2708 13.0905 48.2153 13.0972C48.1165 13.1094 48.0256 13.1572 47.9596 13.2314C47.8937 13.3057 47.8573 13.4014 47.8573 13.5005C47.8573 13.5996 47.8937 13.6953 47.9596 13.7696C48.0256 13.8439 48.1165 13.8916 48.2153 13.9038C48.2708 13.9105 48.3272 13.9055 48.3807 13.8893C48.4342 13.8731 48.4837 13.8459 48.5261 13.8095C48.5703 13.7709 48.6058 13.7233 48.6303 13.67C48.6547 13.6167 48.6676 13.5589 48.668 13.5003Z" fill="#020202"/>
<path d="M49.168 11C49.3021 10.9955 49.4293 10.9409 49.5226 10.8476C49.6158 10.7543 49.668 10.6297 49.668 10.5C49.668 10.3703 49.6158 10.2457 49.5226 10.1524C49.4293 10.0591 49.3021 10.0045 49.168 10C49.0338 10.0045 48.9067 10.0591 48.8134 10.1524C48.7201 10.2457 48.668 10.3703 48.668 10.5C48.668 10.6297 48.7201 10.7543 48.8134 10.8476C48.9067 10.9409 49.0338 10.9955 49.168 11Z" fill="#020202"/>
<path d="M36.4806 34.0728L34.0279 34.1037L34.0756 34.0679C33.6733 35.5057 33.3694 36.971 33.1663 38.453C32.9455 39.9284 32.8718 41.4233 32.9463 42.9143C32.9833 43.6551 33.0893 44.3905 33.2628 45.1103C33.4291 45.8253 33.6928 46.5122 34.046 47.1506C34.3975 47.7837 34.881 48.328 35.4615 48.7439C36.0469 49.1503 36.7012 49.4387 37.3902 49.5941L37.4052 49.5983L37.4104 49.5999C38.1263 49.8237 38.8552 50.0005 39.5927 50.1293C40.3328 50.2661 41.0786 50.3736 41.8269 50.4598C43.325 50.6362 44.8307 50.7338 46.3383 50.7521C46.7152 50.7646 47.0924 50.7633 47.4696 50.7584L48.6012 50.7489L49.7327 50.7129L50.2985 50.6939L50.8637 50.6592L51.9943 50.5898C52.3712 50.5662 52.7477 50.5243 53.1245 50.4924L54.2548 50.3909L55.3908 50.3266L55.3926 50.3265C55.4071 50.3257 55.4216 50.3278 55.4353 50.3328C55.4491 50.3378 55.4617 50.3455 55.4725 50.3555C55.4833 50.3655 55.4922 50.3777 55.4984 50.3912C55.5047 50.4048 55.5084 50.4194 55.5092 50.4344C55.5101 50.4524 55.5069 50.4703 55.4999 50.4868C54.9539 51.7674 54.4012 53.0444 53.8417 54.3179C53.2883 55.5944 52.7277 56.8676 52.1599 58.1375C51.5896 59.4062 51.0097 60.6705 50.4203 61.9303C50.1225 62.5587 49.8194 63.1847 49.4996 63.8026C49.3393 64.1114 49.1754 64.4184 48.9998 64.7198C48.9113 64.8701 48.8203 65.0192 48.721 65.1646C48.6708 65.2383 48.617 65.3094 48.5597 65.3775C48.5296 65.4135 48.4968 65.447 48.4617 65.4777C48.4182 65.5198 48.363 65.5465 48.3039 65.554L48.3373 65.4095C49.4051 65.9596 50.4932 66.4714 51.5866 66.9659C52.6813 67.4582 53.7866 67.9253 54.9055 68.3512C56.0186 68.7866 57.1572 69.1489 58.3145 69.4359C58.8867 69.5783 59.4708 69.6636 60.0587 69.6906C60.3431 69.7041 60.6278 69.6749 60.904 69.604C61.03 69.5777 61.1494 69.5247 61.2546 69.4483C61.3598 69.372 61.4485 69.2739 61.5152 69.1604L61.5019 69.1957L61.9996 67.1628C62.0089 67.1251 62.03 67.0918 62.0596 67.068C62.0893 67.0442 62.1258 67.0313 62.1634 67.0313L62.1664 67.0314C63.0665 67.0343 63.9716 67.0084 64.869 66.9503C65.3174 66.9192 65.7657 66.8796 66.2048 66.8108C66.4216 66.7789 66.6365 66.7341 66.8483 66.6767C66.9474 66.6496 67.0441 66.6142 67.1376 66.5707C67.1997 66.548 67.255 66.5087 67.2977 66.4568L67.2886 66.573L66 60.6749L64.7221 54.7743C64.7137 54.7359 64.7156 54.6959 64.7275 54.6586L64.7287 54.6549C65.1658 53.3003 65.5123 51.9162 65.7656 50.5125C65.8923 49.8129 65.9822 49.1067 66.0348 48.397C66.0932 47.6941 66.0825 46.9868 66.0029 46.2861C65.9606 45.9425 65.8884 45.6036 65.7872 45.2734C65.6858 44.9524 65.5369 44.6495 65.346 44.3755C65.1474 44.1118 64.8965 43.8948 64.6103 43.7392C64.4657 43.65 64.3155 43.5708 64.1608 43.5021L63.9304 43.3898L63.691 43.2922C62.3956 42.788 61.0705 42.3695 59.7237 42.039C57.0269 41.3497 54.2977 40.7804 51.5621 40.255L50.5354 40.0616C50.3642 40.0295 50.1936 40.0002 50.0199 39.9577L49.7606 39.8983L49.5068 39.8177C48.4957 39.4858 47.5997 38.8574 46.9278 38.009C46.2559 37.1606 45.8371 36.1287 45.7222 35.0389C45.7627 35.0364 45.7342 35.0429 45.7437 35.0445L45.7451 35.0528L45.7479 35.0694L45.7537 35.1024L45.7651 35.1686L45.788 35.3008C45.8009 35.3893 45.818 35.4771 45.8395 35.5638C45.8791 35.7379 45.9273 35.9098 45.9838 36.0789L46.0701 36.3317C46.1016 36.4148 46.1395 36.4953 46.1739 36.5772C46.243 36.7408 46.3211 36.9001 46.4078 37.0545C46.7489 37.6754 47.2036 38.2219 47.7465 38.6635C48.2834 39.1081 48.9 39.4387 49.5609 39.6363L49.8072 39.7102L50.0586 39.7634C50.2243 39.8014 50.3975 39.8283 50.5692 39.8576L51.5998 40.0344C54.3459 40.5169 57.0886 41.0339 59.8028 41.7067C61.1687 42.0276 62.5136 42.438 63.829 42.9356L64.0761 43.0336L64.319 43.1488C64.4846 43.2208 64.6455 43.3037 64.8007 43.3972C65.1327 43.5763 65.4245 43.8256 65.6569 44.129C65.8772 44.4367 66.0496 44.778 66.1681 45.1406C66.2802 45.4955 66.3596 45.8605 66.4053 46.2308C66.4901 46.9597 66.503 47.6956 66.4441 48.4272C66.3918 49.1524 66.3015 49.874 66.1736 50.589C65.9193 52.0153 65.5702 53.4218 65.1286 54.7984L65.1353 54.6791L66.4038 60.5819L67.6615 66.4871L67.6644 66.5008C67.6718 66.5354 67.6676 66.5716 67.6524 66.6034C67.5782 66.7532 67.452 66.8685 67.2991 66.9263C67.1859 66.9788 67.0686 67.0214 66.9485 67.0537C66.7218 67.114 66.492 67.1608 66.2601 67.1937C65.803 67.2626 65.3474 67.2999 64.892 67.329C63.9808 67.3853 63.0731 67.3942 62.1615 67.3821L62.3282 67.2508L61.8074 69.2775L61.8068 69.2799C61.8038 69.2914 61.7996 69.3024 61.7941 69.3129C61.7062 69.4646 61.5889 69.5958 61.4494 69.6983C61.31 69.8007 61.1515 69.8722 60.9839 69.9081C60.6786 69.9837 60.3642 70.0129 60.0507 69.9948C59.444 69.9601 58.842 69.8651 58.2529 69.7111C57.088 69.4075 55.943 69.028 54.8245 68.575C52.5865 67.6875 50.4107 66.6539 48.2705 65.5457C48.2565 65.5385 48.2451 65.5268 48.238 65.5124C48.2308 65.4981 48.2283 65.4817 48.2308 65.4658C48.2333 65.4498 48.2407 65.4351 48.2518 65.4238C48.263 65.4124 48.2773 65.4051 48.2928 65.4027L48.3039 65.4011C48.3611 65.3711 48.4111 65.3284 48.4506 65.2762C48.5045 65.2125 48.5553 65.146 48.6027 65.077C48.6992 64.9371 48.7895 64.7908 48.8774 64.6429C49.0522 64.346 49.2167 64.0413 49.3776 63.7347C49.6988 63.1209 50.0043 62.4974 50.3043 61.8713C50.9061 60.6196 51.4762 59.3514 52.0367 58.079C52.5978 56.8068 53.1505 55.5306 53.6949 54.2504C54.2355 52.9687 54.769 51.6839 55.2955 50.3959L55.4047 50.5561L54.2753 50.6382L53.1459 50.7576C52.7691 50.7953 52.3937 50.8431 52.0158 50.8726L50.8816 50.9599L50.3144 51.0035L49.7463 51.0315L48.6096 51.0853C48.2306 51.0998 47.851 51.0994 47.4717 51.1055C47.0923 51.1122 46.7129 51.1154 46.3334 51.1047C44.8142 51.0937 43.2964 51.0028 41.7861 50.8324C41.0307 50.7446 40.2784 50.6292 39.5293 50.4864C38.775 50.35 38.0299 50.164 37.2986 49.9295L37.3186 49.9354C36.5873 49.766 35.8936 49.455 35.2744 49.0187C34.6595 48.5722 34.1481 47.9903 33.7773 47.3149C33.4109 46.6484 33.1408 45.93 32.9758 45.1827C32.8084 44.4431 32.7103 43.6886 32.6829 42.9297C32.6283 41.4209 32.7238 39.9104 32.9677 38.4217C33.2006 36.9361 33.539 35.4702 33.9802 34.0359C33.9834 34.0254 33.9898 34.0163 33.9984 34.0098C34.007 34.0034 34.0174 33.9999 34.028 34L36.4807 34.031C36.486 34.0311 36.4911 34.0333 36.4948 34.0372C36.4985 34.0411 36.5006 34.0464 36.5006 34.0519C36.5006 34.0573 36.4985 34.0626 36.4948 34.0665C36.4911 34.0704 36.4859 34.0727 36.4806 34.0728Z" fill="#020202"/>
<path d="M45.0128 30.9887C45.0957 30.33 45.1681 29.6794 45.2203 29.0248C45.2747 28.3709 45.3089 27.7161 45.3564 27.0601C45.409 26.4046 45.469 25.7448 45.4755 25.0835C45.4765 24.4221 45.4407 23.7612 45.3684 23.105L45.1575 21.1376L44.9368 19.1743L44.8359 18.1911L44.7859 17.699L44.7617 17.4527L44.7329 17.219C44.6983 16.9153 44.5898 16.6286 44.4198 16.3914C44.329 16.2808 44.2158 16.1974 44.09 16.1484C43.956 16.1014 43.8152 16.0848 43.6755 16.0997L43.668 16.0579C43.8157 15.9997 43.9739 15.9851 44.1279 16.0153C44.2819 16.0456 44.4266 16.1197 44.5487 16.2309C44.783 16.474 44.948 16.7916 45.0223 17.1427C45.1613 17.8124 45.2458 18.4535 45.3334 19.1155C45.4127 19.7738 45.4631 20.4362 45.5067 21.0988C45.5546 21.761 45.5717 22.4262 45.571 23.0911C45.5733 23.7558 45.5742 24.4187 45.5971 25.0815C45.6204 25.7442 45.6679 26.409 45.668 27.0762C45.6602 27.7439 45.6066 28.4099 45.5074 29.068C45.4159 29.7289 45.2621 30.3766 45.0488 31L45.0128 30.9887Z" fill="#020202"/>
<path d="M42.1939 28.3973L42.2268 29.7521H42.1189L42.0918 28.3973L42.1702 28.4793C41.0001 28.4692 39.8307 28.438 38.6609 28.4175C37.4911 28.397 36.3216 28.3698 35.1522 28.3361L35.3207 28.1992C35.1664 29.1264 35.0753 30.0632 35.0481 31.003C35.0343 31.4708 35.0446 31.939 35.0789 32.4058C35.1081 32.8675 35.1786 33.3257 35.2896 33.7745C35.3885 34.2113 35.5835 34.6198 35.8601 34.9696C35.9972 35.1308 36.1667 35.2607 36.3573 35.3504C36.5611 35.4345 36.7734 35.4959 36.9903 35.5334C37.9076 35.6729 38.8351 35.7324 39.7624 35.7112C41.6307 35.7008 43.5026 35.5791 45.3671 35.4023C47.2331 35.2357 49.0929 34.995 50.9472 34.733C50.9553 34.7319 50.9636 34.732 50.9716 34.7334L50.9734 34.7337C51.6899 34.8578 52.4119 34.9625 53.1343 35.0464C53.8541 35.1364 54.5783 35.1862 55.3035 35.1956C55.4836 35.1966 55.6633 35.1905 55.8408 35.1788C56.0121 35.1737 56.1822 35.1475 56.3472 35.1006C56.5019 35.0504 56.6446 34.9681 56.7661 34.8589C56.8877 34.7498 56.9854 34.6162 57.0532 34.4666C57.1954 34.1496 57.2736 33.8071 57.2833 33.459C57.3011 33.1042 57.2805 32.7485 57.2218 32.3982L57.2217 32.3971C57.2153 32.359 57.221 32.3199 57.2381 32.2854C57.2551 32.2509 57.2826 32.2228 57.3165 32.2052L59.5808 31.033L59.5975 31.0256L59.6067 31.0221C59.8329 30.9483 60.0379 30.8194 60.2036 30.6468C60.2299 30.6201 60.2489 30.5869 60.2587 30.5504C60.2685 30.514 60.2687 30.4756 60.2594 30.4391C60.247 30.3992 60.2268 30.3623 60.1998 30.3306C60.1729 30.2989 60.1398 30.2732 60.1027 30.2549C60.0213 30.2144 59.9285 30.204 59.8403 30.2257L59.4479 30.3311L58.6473 30.5395C58.112 30.6741 57.5757 30.8038 57.0289 30.911C56.7481 30.9706 56.4634 31.0098 56.177 31.0283C56.1345 31.0297 56.0919 31.0285 56.0495 31.0249C55.9991 31.0209 55.9494 31.0107 55.9014 30.9947C55.8238 30.9707 55.7482 30.9404 55.6755 30.904C55.6223 30.8776 55.5739 30.8424 55.5323 30.7997C55.4958 30.7621 55.4687 30.7161 55.4534 30.6656C55.4356 30.6048 55.4365 30.54 55.4559 30.4798C55.4793 30.4128 55.5185 30.3526 55.57 30.3044C55.6015 30.2736 55.6348 30.2449 55.6698 30.2183C55.9024 30.0491 56.1456 29.8954 56.3978 29.758C56.5229 29.6896 56.6525 29.6256 56.7801 29.5671C56.8421 29.5383 56.91 29.5084 56.9503 29.4861C56.9594 29.4812 56.9665 29.476 56.9611 29.4799C56.9369 29.5019 56.9207 29.5315 56.9152 29.564C56.9058 29.6007 56.9112 29.6397 56.93 29.6725C56.9369 29.6848 56.94 29.6865 56.9385 29.6848C56.9031 29.6585 56.8645 29.6372 56.8235 29.6214C56.768 29.5983 56.7112 29.5784 56.6534 29.5618C56.5306 29.527 56.4056 29.5003 56.2794 29.482C55.4993 29.3656 54.7028 29.4987 54.0009 29.8627C53.5225 30.0904 53.0807 30.39 52.6905 30.7512L52.6878 30.7537C52.6522 30.7864 52.6063 30.8053 52.5582 30.807C51.3808 30.8477 50.2038 30.8769 49.0273 30.8946C47.8489 30.9038 46.6739 30.9293 45.4862 30.8372C45.3334 30.8254 45.1814 30.8041 45.0311 30.7734C44.9879 30.7639 44.9454 30.751 44.904 30.735C44.8432 30.7069 44.8283 30.6947 44.7922 30.6755L44.6027 30.5694C44.3478 30.4335 44.0837 30.3159 43.8125 30.2176C43.2708 30.0187 42.6957 29.9292 42.12 29.9544C41.5395 29.9904 40.9678 30.1149 40.424 30.3237C39.8722 30.5208 39.333 30.7645 38.7715 30.9482C38.7662 30.9499 38.7605 30.9495 38.7556 30.947C38.7506 30.9445 38.7468 30.9401 38.745 30.9348C38.7433 30.9295 38.7436 30.9237 38.746 30.9187C38.7484 30.9136 38.7527 30.9098 38.7579 30.9079C39.3085 30.7028 39.8354 30.4386 40.3844 30.217C40.9336 29.9807 41.5148 29.8299 42.1085 29.7695C42.7102 29.7238 43.3148 29.7999 43.8872 29.9932C44.1724 30.0876 44.4506 30.2023 44.7199 30.3365L44.9192 30.4409C44.9482 30.456 44.9965 30.4823 45.0033 30.4836C45.0311 30.4929 45.0594 30.5003 45.0881 30.5057C45.2269 30.5295 45.367 30.5448 45.5076 30.5516C46.6681 30.6026 47.8474 30.5653 49.0194 30.5336C50.1929 30.4964 51.3662 30.4467 52.5395 30.3844L52.4074 30.4402C52.8261 30.0459 53.3025 29.7193 53.8196 29.4721C54.5965 29.069 55.4778 28.92 56.3419 29.0456C56.4876 29.0663 56.6319 29.0966 56.7737 29.1364C56.8481 29.1575 56.9212 29.183 56.9928 29.2126C57.0802 29.2467 57.1615 29.2952 57.2334 29.3562C57.2625 29.3829 57.2878 29.4137 57.3084 29.4476C57.3452 29.5076 57.3586 29.5793 57.346 29.6488C57.3334 29.7182 57.2957 29.7804 57.2402 29.8232C57.2167 29.8425 57.1915 29.8595 57.165 29.8741C57.0847 29.9182 57.0258 29.9424 56.9633 29.9722C56.841 30.0289 56.7238 30.0873 56.6075 30.1514C56.3765 30.2787 56.1536 30.4205 55.94 30.5759C55.9201 30.591 55.901 30.6074 55.883 30.6248C55.8694 30.636 55.8659 30.6522 55.8798 30.6184C55.888 30.5913 55.8881 30.5622 55.88 30.535C55.8751 30.5178 55.8666 30.5019 55.8551 30.4883C55.8464 30.4806 55.861 30.4935 55.8803 30.5026C55.9311 30.527 55.9836 30.5474 56.0375 30.5636L56.0598 30.5708L56.0666 30.5716C56.0745 30.5737 56.0825 30.5748 56.0906 30.5749C56.1166 30.5773 56.1427 30.5782 56.1688 30.5775C56.4308 30.5617 56.6914 30.5277 56.9487 30.4757C57.4815 30.3767 58.0153 30.2533 58.5472 30.1251L59.3443 29.9259L59.7492 29.8215C59.9312 29.7794 60.122 29.8036 60.288 29.8898C60.3739 29.9343 60.45 29.996 60.5114 30.0713C60.5729 30.1466 60.6185 30.2338 60.6455 30.3276C60.6747 30.43 60.6755 30.5386 60.6476 30.6414C60.6211 30.7351 60.5758 30.8223 60.5145 30.8975C60.4095 31.0223 60.283 31.1268 60.1411 31.206C60.0103 31.2825 59.8726 31.3462 59.7299 31.3963L59.7557 31.3854L57.4758 32.5259L57.5705 32.333C57.6284 32.7127 57.6446 33.0977 57.6186 33.481C57.6002 33.8735 57.5041 34.2583 57.336 34.6125C57.2461 34.7974 57.1192 34.9613 56.9634 35.0939C56.8076 35.2265 56.6263 35.3248 56.431 35.3827C56.335 35.4098 56.237 35.429 56.138 35.44L55.8567 35.4586C55.6702 35.4661 55.4847 35.4671 55.3002 35.4615C54.5665 35.4323 53.8348 35.364 53.1082 35.2569C52.3829 35.156 51.6614 35.0349 50.9435 34.8935L50.9696 34.8941C49.1098 35.1444 47.2457 35.3445 45.3811 35.5482C43.5148 35.7327 41.6471 35.9167 39.7669 35.9798C38.8202 36.0271 37.8714 35.9914 36.9308 35.8731C36.6845 35.8367 36.4435 35.7698 36.2133 35.674C35.9764 35.5653 35.7651 35.4068 35.5934 35.2091C35.2763 34.8198 35.0508 34.3626 34.934 33.8721C34.7104 32.9297 34.627 31.9588 34.6866 30.9915C34.7242 30.034 34.8271 29.0802 34.9944 28.137C35.0017 28.0975 35.0226 28.062 35.0536 28.0369C35.0845 28.0117 35.1233 27.9987 35.163 28.0001C36.3321 28.0413 37.5009 28.0906 38.6695 28.1478C39.8382 28.2038 41.0072 28.249 42.1755 28.3153L42.179 28.3155C42.1995 28.3167 42.2188 28.3259 42.2327 28.3411C42.2467 28.3564 42.2543 28.3765 42.2539 28.3973L42.2268 29.7521L42.2268 29.7545C42.2265 29.769 42.2205 29.7828 42.2102 29.7928C42.1999 29.8029 42.1861 29.8083 42.1718 29.8081C42.1575 29.8078 42.1438 29.8017 42.1339 29.7913C42.124 29.7808 42.1186 29.7668 42.1189 29.7523L42.1189 29.7521L42.1518 28.3973C42.152 28.3917 42.1542 28.3864 42.1582 28.3825C42.1621 28.3786 42.1674 28.3765 42.1729 28.3765C42.1784 28.3765 42.1836 28.3786 42.1876 28.3825C42.1915 28.3864 42.1938 28.3917 42.1939 28.3973Z" fill="#020202"/>
<path d="M64.2499 68L62.4432 68.0354L62.1419 69.0583C61.9994 71.592 58.668 70.6649 58.668 70.6649L58.8294 72.3655C58.8837 72.9898 58.8974 73.6162 58.8707 74.2419C58.8439 75.0112 59.0079 76.2283 60.2328 76.6066C62.0702 77.1742 67.1494 76.9606 67.1494 76.9606L67.668 74.6451C67.0596 74.6168 66.4678 74.4604 65.9423 74.1891C65.4169 73.9177 64.9731 73.5394 64.6482 73.0858C64.297 72.5913 64.1231 72.0152 64.1493 71.4326L64.2499 68Z" stroke="#020202" stroke-width="0.96777" stroke-linecap="round" stroke-linejoin="round"/>
<path d="M34.168 46C34.3021 45.9955 34.4293 45.9409 34.5225 45.8476C34.6158 45.7543 34.668 45.6297 34.668 45.5C34.668 45.3703 34.6158 45.2457 34.5225 45.1524C34.4293 45.0591 34.3021 45.0045 34.168 45C34.0338 45.0045 33.9067 45.0591 33.8134 45.1524C33.7201 45.2457 33.668 45.3703 33.668 45.5C33.668 45.6297 33.7201 45.7543 33.8134 45.8476C33.9067 45.9409 34.0338 45.9955 34.168 46Z" fill="#020202"/>
<path d="M39.168 45C39.3021 44.9955 39.4293 44.9409 39.5226 44.8476C39.6158 44.7543 39.668 44.6297 39.668 44.5C39.668 44.3703 39.6158 44.2457 39.5226 44.1524C39.4293 44.0591 39.3021 44.0045 39.168 44C39.0338 44.0045 38.9067 44.0591 38.8134 44.1524C38.7201 44.2457 38.668 44.3703 38.668 44.5C38.668 44.6297 38.7201 44.7543 38.8134 44.8476C38.9067 44.9409 39.0338 44.9955 39.168 45Z" fill="#020202"/>
<path d="M44.168 19C44.3021 18.9955 44.4293 18.9409 44.5225 18.8476C44.6158 18.7543 44.668 18.6297 44.668 18.5C44.668 18.3703 44.6158 18.2457 44.5225 18.1524C44.4293 18.0591 44.3021 18.0045 44.168 18C44.0338 18.0045 43.9067 18.0591 43.8134 18.1524C43.7201 18.2457 43.668 18.3703 43.668 18.5C43.668 18.6297 43.7201 18.7543 43.8134 18.8476C43.9067 18.9409 44.0338 18.9955 44.168 19Z" fill="#020202"/>
<path d="M45.168 22C45.3021 21.9955 45.4293 21.9409 45.5226 21.8476C45.6158 21.7543 45.668 21.6297 45.668 21.5C45.668 21.3703 45.6158 21.2457 45.5226 21.1524C45.4293 21.0591 45.3021 21.0045 45.168 21C45.0338 21.0045 44.9067 21.0591 44.8134 21.1524C44.7201 21.2457 44.668 21.3703 44.668 21.5C44.668 21.6297 44.7201 21.7543 44.8134 21.8476C44.9067 21.9409 45.0338 21.9955 45.168 22Z" fill="#020202"/>
<path d="M45.168 24C45.3021 23.9955 45.4293 23.9409 45.5226 23.8476C45.6158 23.7543 45.668 23.6297 45.668 23.5C45.668 23.3703 45.6158 23.2457 45.5226 23.1524C45.4293 23.0591 45.3021 23.0045 45.168 23C45.0338 23.0045 44.9067 23.0591 44.8134 23.1524C44.7201 23.2457 44.668 23.3703 44.668 23.5C44.668 23.6297 44.7201 23.7543 44.8134 23.8476C44.9067 23.9409 45.0338 23.9955 45.168 24Z" fill="#020202"/>
<path d="M45.168 27C45.3022 26.9955 45.4293 26.9409 45.5226 26.8476C45.6158 26.7543 45.668 26.6297 45.668 26.5C45.668 26.3703 45.6158 26.2457 45.5226 26.1524C45.4293 26.0591 45.3022 26.0045 45.168 26C45.0338 26.0045 44.9067 26.0591 44.8134 26.1524C44.7201 26.2457 44.668 26.3703 44.668 26.5C44.668 26.6297 44.7201 26.7543 44.8134 26.8476C44.9067 26.9409 45.0338 26.9955 45.168 27Z" fill="#020202"/>
<path d="M45.168 29C45.3021 28.9955 45.4293 28.9409 45.5226 28.8476C45.6158 28.7543 45.668 28.6297 45.668 28.5C45.668 28.3703 45.6158 28.2457 45.5226 28.1524C45.4293 28.0591 45.3021 28.0045 45.168 28C45.0338 28.0045 44.9067 28.0591 44.8134 28.1524C44.7201 28.2457 44.668 28.3703 44.668 28.5C44.668 28.6297 44.7201 28.7543 44.8134 28.8476C44.9067 28.9409 45.0338 28.9955 45.168 29Z" fill="#020202"/>
<path d="M32.668 34H35.6173C36.1593 35.3153 36.668 35.2573 36.668 35.2573C35.1807 37.4819 32.668 34 32.668 34Z" fill="#020202"/>
<path d="M44.668 16C44.668 16 47.2222 24.6626 45.1161 30.8486L45.7286 31C45.7286 31 46.617 27.9176 47.0466 27.3734C49.8315 23.8457 48.1842 22.6345 48.1842 22.6345C46.2192 21.4497 44.668 16 44.668 16Z" fill="#D1243A"/>
<path d="M35.668 28.6575C36.988 28.6447 38.2972 28.5711 39.6099 28.5194L43.5444 28.3562L43.4281 28.3813C43.4135 28.3874 43.4532 28.3646 43.4701 28.3519C43.494 28.3333 43.5167 28.3136 43.5383 28.2927C43.5856 28.247 43.6291 28.198 43.6682 28.1459C43.7515 28.0302 43.8185 27.905 43.8677 27.7735C43.9698 27.487 44.0282 27.1887 44.0411 26.8871C44.0456 26.7314 44.0591 26.576 44.0491 26.4174L44.0425 26.1803L44.02 25.9419C44.0087 25.7828 43.9859 25.6237 43.959 25.4645L43.8846 24.9788C43.7741 24.3216 43.693 23.6593 43.6485 22.9943C43.5922 22.3292 43.6145 21.6605 43.7152 21C43.7544 21.6577 43.8419 22.3121 43.977 22.9587C44.0988 23.6057 44.2444 24.2483 44.398 24.8889C44.5773 25.551 44.668 26.2311 44.668 26.9139C44.6577 27.2732 44.5926 27.6294 44.4747 27.9718C44.4095 28.1533 44.3194 28.3263 44.2067 28.4864C44.1463 28.5713 44.0769 28.6502 43.9995 28.7222C43.9586 28.7601 43.9154 28.7959 43.8701 28.8291C43.8136 28.8698 43.7527 28.9048 43.6883 28.9336C43.6545 28.9489 43.6175 28.9573 43.5799 28.9585L43.5719 28.9587C42.9109 28.9762 42.2533 28.9993 41.5934 28.9989C40.934 29.0015 40.2745 29.001 39.6147 28.9808C38.9551 28.9679 38.2952 28.9337 37.636 28.889C36.9757 28.8477 36.3185 28.7704 35.668 28.6575Z" fill="#020202"/>
</svg>
