<svg width="119" height="82" viewBox="0 0 119 82" fill="none" xmlns="http://www.w3.org/2000/svg">
<path d="M116.613 58.2461H1.96094V76.7042H116.613V58.2461Z" fill="white"/>
<path d="M116.616 76.8674H1.96428C1.90952 76.8674 1.857 76.8507 1.81828 76.8211C1.77956 76.7916 1.75781 76.7514 1.75781 76.7096V58.2652C1.75781 58.2445 1.76315 58.224 1.77353 58.2048C1.78391 58.1857 1.79911 58.1683 1.81828 58.1536C1.83746 58.139 1.86022 58.1274 1.88527 58.1194C1.91032 58.1115 1.93717 58.1074 1.96428 58.1074H116.616C116.643 58.1074 116.67 58.1115 116.695 58.1194C116.72 58.1274 116.743 58.139 116.762 58.1536C116.781 58.1683 116.796 58.1857 116.807 58.2048C116.817 58.224 116.823 58.2445 116.823 58.2652V76.7267C116.817 76.7655 116.793 76.8014 116.755 76.8274C116.717 76.8533 116.667 76.8676 116.616 76.8674ZM2.16177 76.5518H116.41V58.4058H2.17075L2.16177 76.5518Z" fill="#D1D3D4"/>
<path d="M116.593 58.2461H1.98639C1.00476 58.2461 0.208984 58.8541 0.208984 59.6042V59.8649C0.208984 60.6149 1.00476 61.223 1.98639 61.223H116.593C117.575 61.223 118.371 60.6149 118.371 59.8649V59.6042C118.371 58.8541 117.575 58.2461 116.593 58.2461Z" fill="white"/>
<path d="M116.592 61.3823H1.98485C1.45869 61.3823 0.954088 61.2226 0.582039 60.9383C0.209991 60.654 0.000976563 60.2684 0.000976563 59.8664V59.6092C0.000975221 59.2068 0.209845 58.8209 0.581765 58.536C0.953686 58.2512 1.45828 58.0908 1.98485 58.0898H116.592C117.118 58.0908 117.623 58.2512 117.995 58.536C118.367 58.8209 118.576 59.2068 118.576 59.6092V59.8664C118.576 60.0654 118.524 60.2626 118.425 60.4465C118.325 60.6304 118.179 60.7975 117.995 60.9383C117.81 61.079 117.592 61.1907 117.351 61.2669C117.11 61.343 116.852 61.3823 116.592 61.3823ZM1.98485 58.4054C1.5678 58.4063 1.16823 58.5335 0.873752 58.7592C0.579272 58.9848 0.413907 59.2905 0.413909 59.6092V59.8664C0.413909 60.1847 0.579417 60.49 0.874026 60.7152C1.16863 60.9403 1.56821 61.0667 1.98485 61.0667H116.592C117.008 61.0667 117.408 60.9403 117.703 60.7152C117.997 60.49 118.163 60.1847 118.163 59.8664V59.6092C118.163 59.2905 117.997 58.9848 117.703 58.7592C117.408 58.5335 117.009 58.4063 116.592 58.4054H1.98485Z" fill="#D1D3D4"/>
<path d="M45.8647 53.501H9.96191V58.0864H45.8647V53.501Z" fill="#231F20"/>
<path d="M45.8625 58.2368H9.9553C9.90292 58.2368 9.85269 58.2209 9.81565 58.1926C9.77862 58.1643 9.75781 58.1259 9.75781 58.0859V53.5005C9.75781 53.4605 9.77862 53.4221 9.81565 53.3938C9.85269 53.3655 9.90292 53.3496 9.9553 53.3496H45.8625C45.9149 53.3496 45.9652 53.3655 46.0022 53.3938C46.0392 53.4221 46.06 53.4605 46.06 53.5005V58.0859C46.06 58.1259 46.0392 58.1643 46.0022 58.1926C45.9652 58.2209 45.9149 58.2368 45.8625 58.2368ZM10.1573 57.9213H45.6651V53.6514H10.1573V57.9213Z" fill="#231F20"/>
<path d="M45.8599 53.501H26.2949V58.0864H45.8599V53.501Z" fill="white"/>
<path d="M45.8632 58.2422H26.2938C26.2398 58.2413 26.1884 58.2243 26.1507 58.1948C26.1129 58.1653 26.0918 58.1257 26.0918 58.0844V53.4991C26.0918 53.4581 26.1131 53.4189 26.151 53.3899C26.1888 53.361 26.2402 53.3447 26.2938 53.3447H45.8632C45.9168 53.3447 45.9682 53.361 46.006 53.3899C46.0439 53.4189 46.0652 53.4581 46.0652 53.4991V58.0844C46.0652 58.1257 46.0441 58.1653 46.0063 58.1948C45.9686 58.2243 45.9172 58.2413 45.8632 58.2422ZM26.5227 57.9198H45.6792V53.6568H26.5227V57.9198Z" fill="#231F20"/>
<path d="M45.3409 50.1816H16.2695V53.5804H45.3409V50.1816Z" fill="#231F20"/>
<path d="M45.3451 53.7308H16.2737C16.2213 53.7308 16.171 53.7149 16.134 53.6866C16.097 53.6583 16.0762 53.6199 16.0762 53.5799V50.1812C16.0762 50.1411 16.097 50.1028 16.134 50.0745C16.171 50.0462 16.2213 50.0303 16.2737 50.0303H45.3451C45.3979 50.0303 45.4486 50.046 45.4863 50.0743C45.5241 50.1025 45.5459 50.1408 45.5471 50.1812V53.5799C45.5471 53.6 45.5418 53.6199 45.5316 53.6385C45.5214 53.657 45.5064 53.6738 45.4876 53.6878C45.4688 53.7019 45.4465 53.7129 45.422 53.7203C45.3975 53.7277 45.3714 53.7313 45.3451 53.7308ZM16.4712 53.429H45.1476V50.3424H16.4712V53.429Z" fill="#231F20"/>
<path d="M45.3411 50.1816H32.9307V53.5804H45.3411V50.1816Z" fill="white"/>
<path d="M45.3444 53.7367H32.934C32.8792 53.7367 32.8267 53.7201 32.788 53.6905C32.7493 53.6609 32.7275 53.6208 32.7275 53.579V50.1802C32.7287 50.1387 32.7508 50.099 32.7893 50.0696C32.8277 50.0402 32.8796 50.0233 32.934 50.0225H45.3444C45.3992 50.0225 45.4517 50.0391 45.4904 50.0687C45.5292 50.0983 45.5509 50.1384 45.5509 50.1802V53.579C45.5515 53.5998 45.5466 53.6205 45.5364 53.6399C45.5263 53.6592 45.5111 53.6768 45.4918 53.6916C45.4725 53.7063 45.4495 53.7179 45.4242 53.7257C45.3988 53.7334 45.3717 53.7372 45.3444 53.7367ZM33.1405 53.4246H45.1425V50.338H33.1405V53.4246Z" fill="#231F20"/>
<path d="M41.2413 46.8779H12.1699V50.2767H41.2413V46.8779Z" fill="#231F20"/>
<path d="M41.2443 50.4271H12.1594C12.107 50.4271 12.0568 50.4112 12.0198 50.3829C11.9827 50.3546 11.9619 50.3162 11.9619 50.2762V46.8775C11.9619 46.8374 11.9827 46.7991 12.0198 46.7708C12.0568 46.7425 12.107 46.7266 12.1594 46.7266H41.2443C41.2967 46.7266 41.3469 46.7425 41.3839 46.7708C41.421 46.7991 41.4418 46.8374 41.4418 46.8775V50.2762C41.4418 50.3162 41.421 50.3546 41.3839 50.3829C41.3469 50.4112 41.2967 50.4271 41.2443 50.4271ZM12.3659 50.1253H41.0468V47.0387H12.3659V50.1253Z" fill="#231F20"/>
<path d="M41.2415 46.8779H28.8311V50.2767H41.2415V46.8779Z" fill="white"/>
<path d="M41.2449 50.434H28.83C28.8031 50.434 28.7764 50.4299 28.7516 50.4219C28.7268 50.4139 28.7043 50.4023 28.6855 50.3876C28.6667 50.3729 28.6519 50.3555 28.642 50.3363C28.6322 50.3172 28.6274 50.2968 28.628 50.2762V46.8775C28.628 46.8362 28.6491 46.7966 28.6869 46.7671C28.7246 46.7376 28.776 46.7206 28.83 46.7197H41.2449C41.2989 46.7206 41.3502 46.7376 41.388 46.7671C41.4257 46.7966 41.4469 46.8362 41.4469 46.8775V50.2762C41.4475 50.2968 41.4427 50.3172 41.4328 50.3363C41.4229 50.3555 41.4081 50.3729 41.3893 50.3876C41.3705 50.4023 41.348 50.4139 41.3232 50.4219C41.2984 50.4299 41.2718 50.434 41.2449 50.434ZM29.0364 50.1219H41.0384V47.0352H29.0364V50.1219Z" fill="#231F20"/>
<path d="M26.6178 49.3271C27.1358 49.3271 27.5558 49.0062 27.5558 48.6103C27.5558 48.2145 27.1358 47.8936 26.6178 47.8936C26.0997 47.8936 25.6797 48.2145 25.6797 48.6103C25.6797 49.0062 26.0997 49.3271 26.6178 49.3271Z" fill="white"/>
<path d="M26.6162 49.4835C26.3899 49.4835 26.1686 49.4322 25.9803 49.3361C25.7921 49.24 25.6454 49.1034 25.5588 48.9436C25.4722 48.7838 25.4495 48.608 25.4937 48.4383C25.5378 48.2687 25.6468 48.1128 25.8069 47.9905C25.967 47.8682 26.1709 47.7849 26.3929 47.7512C26.615 47.7174 26.8451 47.7348 27.0542 47.8009C27.2634 47.8671 27.4421 47.9792 27.5679 48.123C27.6936 48.2669 27.7608 48.436 27.7608 48.6089C27.7608 48.8409 27.6402 49.0633 27.4255 49.2273C27.2109 49.3913 26.9198 49.4835 26.6162 49.4835ZM26.6162 48.0499C26.4715 48.0499 26.3301 48.0827 26.2098 48.1441C26.0894 48.2055 25.9957 48.2928 25.9403 48.395C25.8849 48.4971 25.8704 48.6095 25.8987 48.718C25.9269 48.8264 25.9966 48.926 26.0989 49.0042C26.2012 49.0824 26.3316 49.1356 26.4735 49.1572C26.6154 49.1788 26.7625 49.1677 26.8962 49.1254C27.0299 49.0831 27.1441 49.0114 27.2245 48.9195C27.3049 48.8276 27.3478 48.7195 27.3478 48.6089C27.3467 48.4609 27.2692 48.3193 27.1322 48.2146C26.9953 48.11 26.8099 48.0508 26.6162 48.0499Z" fill="#231F20"/>
<path d="M19.1069 53.1602C19.0525 53.1593 19.0006 53.1424 18.9621 53.113C18.9237 53.0836 18.9015 53.044 18.9004 53.0025V50.7183C18.9004 50.6976 18.9057 50.6771 18.9161 50.658C18.9265 50.6388 18.9417 50.6214 18.9609 50.6068C18.98 50.5921 19.0028 50.5805 19.0278 50.5726C19.0529 50.5647 19.0797 50.5606 19.1069 50.5606C19.1341 50.5601 19.1613 50.5639 19.1866 50.5716C19.2119 50.5794 19.2349 50.591 19.2542 50.6058C19.2735 50.6205 19.2887 50.6381 19.2989 50.6574C19.309 50.6768 19.3139 50.6975 19.3133 50.7183V53.0196C19.3078 53.0584 19.2836 53.0943 19.2455 53.1202C19.2073 53.1462 19.1579 53.1605 19.1069 53.1602Z" fill="white"/>
<path d="M22.9975 57.7056C22.9704 57.7056 22.9435 57.7016 22.9185 57.6936C22.8934 57.6857 22.8707 57.6741 22.8515 57.6594C22.8323 57.6448 22.8171 57.6274 22.8067 57.6082C22.7964 57.5891 22.791 57.5686 22.791 57.5479V53.9571C22.7984 53.9188 22.8235 53.8838 22.8618 53.8585C22.9002 53.8332 22.9491 53.8193 22.9997 53.8193C23.0504 53.8193 23.0993 53.8332 23.1376 53.8585C23.1759 53.8838 23.2011 53.9188 23.2084 53.9571V57.5479C23.2084 57.5689 23.203 57.5897 23.1923 57.609C23.1816 57.6284 23.166 57.646 23.1464 57.6607C23.1267 57.6754 23.1034 57.6869 23.0779 57.6946C23.0523 57.7023 23.025 57.7061 22.9975 57.7056Z" fill="white"/>
<path d="M28.4785 6.76411L30.045 5.83812L36.6474 7.94046L50.0633 4.47656L51.2751 5.89299L37.2399 12.0423L28.4785 6.76411Z" fill="#E6E7E8"/>
<path d="M33.3954 23.2582L27.9824 6.32629L36.6091 9.16257L52.1839 4.85156L56.1921 21.9516L41.8426 25.731L33.3954 23.2582Z" fill="white"/>
<path d="M41.8421 25.8892C41.8183 25.8924 41.794 25.8924 41.7703 25.8892L33.3231 23.4164C33.2923 23.407 33.2649 23.3921 33.2431 23.373C33.2212 23.354 33.2056 23.3312 33.1974 23.3067L27.7799 6.36444C27.7712 6.33648 27.7729 6.30722 27.7848 6.27995C27.7967 6.25268 27.8183 6.22849 27.8472 6.21011C27.8761 6.19042 27.9119 6.17764 27.9502 6.17337C27.9885 6.16911 28.0276 6.17353 28.0627 6.1861L36.5906 8.99495L52.107 4.70452C52.1338 4.69523 52.1629 4.69043 52.1923 4.69043C52.2217 4.69043 52.2508 4.69523 52.2776 4.70452C52.3038 4.71601 52.3262 4.73184 52.3433 4.75083C52.3604 4.76982 52.3717 4.7915 52.3764 4.81426L56.3935 21.9108C56.4025 21.9475 56.3938 21.9854 56.3691 22.0176C56.3443 22.0497 56.3051 22.0739 56.2588 22.0857L41.8959 25.8583L41.8421 25.8892ZM33.5699 23.1455L41.8466 25.5702L55.9626 21.8525L52.0263 5.06805L36.6759 9.3139C36.6282 9.32758 36.5755 9.32758 36.5278 9.3139L28.2781 6.60451L33.5699 23.1455Z" fill="#231F20"/>
<path d="M40.5906 24.9976C40.5431 24.9969 40.4974 24.984 40.4607 24.961C40.4241 24.9379 40.3987 24.9061 40.3886 24.8707L36.3984 9.19057C36.3932 9.17051 36.3932 9.14987 36.3986 9.12984C36.4039 9.1098 36.4144 9.09078 36.4294 9.07387C36.4445 9.05696 36.4637 9.0425 36.4862 9.03133C36.5086 9.02016 36.5337 9.0125 36.56 9.0088C36.5862 9.00483 36.6132 9.00488 36.6394 9.00895C36.6657 9.01303 36.6906 9.02104 36.7127 9.03252C36.7348 9.04401 36.7538 9.05874 36.7684 9.07587C36.783 9.09299 36.793 9.11216 36.7978 9.13227L40.7836 24.809C40.7888 24.829 40.7887 24.8497 40.7834 24.8697C40.778 24.8897 40.7675 24.9088 40.7525 24.9257C40.7375 24.9426 40.7182 24.9571 40.6958 24.9682C40.6734 24.9794 40.6483 24.9871 40.622 24.9907L40.5906 24.9976Z" fill="#231F20"/>
<path d="M46.32 28.768C46.32 28.768 44.7401 26.868 44.9735 26.3673C45.1553 25.8714 45.2785 25.3641 45.3416 24.8514L43.6539 25.1601C43.6539 25.1601 41.9124 21.8334 41.7374 20.6776C41.5623 19.5218 38.3127 20.5884 38.196 21.4767C38.0793 22.365 38.021 24.6731 38.9501 26.0038C39.8792 27.3344 42.4914 30.5274 42.4914 30.5274" fill="white"/>
<path d="M42.4878 30.6998C42.4528 30.6994 42.4184 30.6923 42.3878 30.6791C42.3572 30.6659 42.3314 30.6471 42.3128 30.6244C42.2859 30.5935 39.6871 27.4109 38.7669 26.0905C37.8468 24.7701 37.8693 22.4962 37.986 21.4776C38.0802 20.7677 39.7275 20.0372 40.8406 20.0304C40.9673 20.0169 41.0963 20.0231 41.2198 20.0484C41.3434 20.0738 41.459 20.1178 41.5599 20.178C41.6607 20.2381 41.7448 20.3131 41.8071 20.3985C41.8693 20.4839 41.9085 20.5779 41.9223 20.6751C42.0749 21.6697 43.4439 24.3757 43.7625 24.9896L45.2796 24.7152C45.3109 24.7086 45.3438 24.7083 45.3753 24.7143C45.4067 24.7204 45.4356 24.7325 45.4592 24.7495C45.4837 24.7661 45.5029 24.7868 45.5153 24.81C45.5278 24.8332 45.5331 24.8582 45.531 24.8832C45.4632 25.4086 45.3356 25.9285 45.1495 26.4369C45.0283 26.6906 45.7464 27.8087 46.496 28.6832C46.5174 28.718 46.5215 28.7575 46.5076 28.7944C46.4936 28.8313 46.4625 28.863 46.4201 28.8836C46.3777 28.9042 46.3269 28.9123 46.2772 28.9064C46.2276 28.9004 46.1825 28.8808 46.1504 28.8513C45.8766 28.5255 44.5301 26.8621 44.7814 26.3271C44.9399 25.9173 45.0481 25.497 45.1046 25.0719L43.6997 25.3291C43.6516 25.3367 43.6016 25.3313 43.5581 25.3138C43.5147 25.2963 43.4806 25.2677 43.4618 25.2331C43.39 25.0959 41.7113 21.8721 41.5318 20.7094C41.5318 20.6202 41.4779 20.3459 40.863 20.3459C39.8756 20.3459 38.4797 21.0318 38.4124 21.5085C38.2867 22.4928 38.2687 24.6912 39.144 25.943C40.0417 27.2531 42.6539 30.4289 42.6808 30.4598C42.7092 30.4953 42.718 30.5379 42.7054 30.5784C42.6928 30.6189 42.6597 30.6539 42.6135 30.6758C42.5766 30.6949 42.5321 30.7034 42.4878 30.6998Z" fill="#231F20"/>
<path d="M96.0939 30.666C96.0607 30.6662 96.0279 30.6601 95.9984 30.6483C95.969 30.6364 95.9439 30.6192 95.9252 30.5982C95.9066 30.5772 95.895 30.5529 95.8915 30.5277C95.8881 30.5024 95.8929 30.4769 95.9054 30.4533C96.7223 28.7846 96.9207 26.976 96.4788 25.2266C96.0369 23.4772 94.9719 21.8549 93.4009 20.5384C93.2393 20.408 93.0732 20.2777 92.9027 20.1474C91.8703 19.3517 90.7034 18.4326 90.7752 17.2871C90.7987 17.0459 90.8528 16.807 90.9368 16.5737C90.9993 16.3818 91.0458 16.1871 91.0759 15.9907C91.224 14.7458 89.8775 13.71 88.724 13.0618C88.4457 12.9041 88.1539 12.7532 87.8667 12.5988C86.785 12.0295 85.6674 11.443 84.9941 10.5616C84.1907 9.53276 84.0964 8.32211 83.9752 7.1629C83.8765 6.13402 83.7777 5.04684 83.1763 4.09684C82.6121 3.19822 81.7913 2.40774 80.7744 1.78362C79.7574 1.1595 78.5702 0.71763 77.3001 0.490564C76.0301 0.263498 74.7095 0.257013 73.4357 0.471587C72.1619 0.686162 70.9674 1.11633 69.94 1.73041C68.8807 2.3386 68.0469 3.14707 67.5207 4.07626C67.0273 5.13548 66.7738 6.25122 66.7712 7.37554C66.6141 9.71796 66.3223 11.9781 64.6437 13.8918C64.1192 14.4518 63.5448 14.9835 62.9246 15.4831C61.7756 16.4571 60.6804 17.3763 60.3438 18.5698C60.1742 19.2106 60.2395 19.8747 60.5326 20.489C60.8256 21.1032 61.335 21.6437 62.0045 22.0508C62.026 22.0632 62.0441 22.0789 62.0576 22.0967C62.0711 22.1146 62.0797 22.1343 62.0831 22.1548C62.0864 22.1752 62.0844 22.196 62.077 22.2158C62.0697 22.2357 62.0573 22.2542 62.0404 22.2703C62.0068 22.3027 61.9578 22.3238 61.9041 22.3289C61.8504 22.3341 61.7962 22.3229 61.7531 22.2977C61.0262 21.8528 60.474 21.2633 60.1573 20.5941C59.8405 19.9249 59.7715 19.2019 59.9578 18.5046C60.3213 17.2151 61.4973 16.2205 62.6508 15.2602C63.257 14.7704 63.8179 14.249 64.3295 13.6997C65.9633 11.8615 66.2371 9.64937 66.3852 7.35496C66.3908 6.19384 66.6564 5.04201 67.1706 3.94937C67.7189 2.9701 68.5895 2.11589 69.6976 1.46976C70.7725 0.830853 72.0209 0.383781 73.3512 0.161304C74.6815 -0.0611739 76.0601 -0.0534214 77.386 0.183994C78.7119 0.421409 79.9515 0.882472 81.014 1.5334C82.0765 2.18433 82.9349 3.00864 83.5264 3.94594C84.1637 4.94738 84.267 6.05514 84.3657 7.12518C84.4734 8.2981 84.5767 9.40586 85.3307 10.3867C85.9591 11.2064 87.0363 11.7757 88.0776 12.3245C88.3739 12.4788 88.6656 12.6331 88.9484 12.7909C90.1872 13.4768 91.6414 14.6086 91.4664 16.001C91.4367 16.2129 91.3857 16.4227 91.3138 16.6286C91.239 16.8443 91.1894 17.0647 91.1657 17.2871C91.1028 18.316 92.1576 19.1219 93.1765 19.9107C93.347 20.0445 93.5176 20.1748 93.6792 20.3051C95.3287 21.6576 96.4478 23.337 96.9089 25.1519C97.3699 26.9668 97.1544 28.8441 96.2869 30.5699C96.2709 30.5988 96.244 30.6233 96.2096 30.6404C96.1752 30.6575 96.1349 30.6664 96.0939 30.666Z" fill="#231F20"/>
<path d="M64.2269 20.9395L55.7797 35.0797L47.5569 28.0456L40.7031 30.5149C40.7031 30.5149 55.838 47.9682 60.0033 46.3802C64.1685 44.7923 70.1381 30.7035 70.1381 30.7035L64.2269 20.9395Z" fill="#D1243A"/>
<path d="M75.1223 17.0085C75.1223 17.0085 65.966 17.7768 63.8116 21.1618C61.6571 24.5468 62.1464 40.2441 62.1464 40.2441L95.9306 43.0118C95.9306 43.0118 95.0733 30.1062 93.4799 24.3787C91.8865 18.6513 87.0166 14.8753 75.1223 17.0085Z" fill="#D1243A"/>
<path d="M72.4111 18.7218L75.8133 32.7249L80.5172 17.3809L72.4111 18.7218Z" fill="#231F20"/>
<path d="M75.8152 32.8848C75.7705 32.8826 75.728 32.8694 75.6939 32.8471C75.6599 32.8248 75.6363 32.7947 75.6267 32.7613L72.2155 18.7479C72.2073 18.7094 72.2185 18.67 72.2468 18.6376C72.2751 18.6051 72.3185 18.582 72.3681 18.573L80.4787 17.232C80.5114 17.2276 80.5451 17.229 80.577 17.2361C80.6089 17.2433 80.6383 17.256 80.6627 17.2732C80.6845 17.2922 80.7003 17.3147 80.7088 17.3391C80.7174 17.3635 80.7185 17.3891 80.7121 17.4138L76.0082 32.7579C76.0017 32.7933 75.9785 32.8257 75.943 32.8491C75.9075 32.8724 75.8621 32.8851 75.8152 32.8848ZM72.6419 18.8234L75.8376 31.9725L80.2542 17.5681L72.6419 18.8234Z" fill="#231F20"/>
<path d="M72.4438 14.6394L72.4124 18.7207C72.4124 18.7207 72.951 21.0048 76.2006 20.3086C77.1596 20.0956 78.0445 19.7223 78.7913 19.2157C79.5381 18.7092 80.1281 18.082 80.5185 17.3797L80.1504 10.3113C80.1504 10.0129 78.5571 8.88113 78.6199 6.28492C77.4754 6.27779 76.3453 6.08836 75.302 5.72874C74.2587 5.36911 73.325 4.84718 72.5605 4.19629C72.5605 4.19629 71.214 5.75333 70.6126 6.25405C70.1393 6.62347 69.7291 7.03717 69.3917 7.48528C68.8396 8.27066 68.8621 9.25152 68.889 10.1226C68.901 11.1588 69.0362 12.1919 69.293 13.2093C69.8136 15.1127 72.4438 14.6394 72.4438 14.6394Z" fill="white"/>
<path d="M75.0472 20.5976C74.5186 20.6062 73.998 20.4978 73.5481 20.2856C72.8557 19.926 72.373 19.3752 72.2015 18.7491L72.2285 14.8256C71.5208 14.9071 70.7978 14.8032 70.1773 14.5307C69.8864 14.3818 69.639 14.1885 69.4506 13.9631C69.2621 13.7376 69.1367 13.4848 69.0821 13.2206C68.8225 12.2034 68.6858 11.1702 68.6737 10.1339C68.6512 9.29368 68.6198 8.25108 69.1988 7.41768C69.5463 6.95099 69.9701 6.51997 70.46 6.13501C71.0346 5.6583 72.3766 4.11841 72.3901 4.10469C72.4073 4.08384 72.4312 4.06663 72.4594 4.05465C72.4876 4.04267 72.5194 4.03629 72.5516 4.03609C72.5837 4.03318 72.6161 4.03708 72.6454 4.04737C72.6747 4.05766 72.6997 4.07393 72.7177 4.0944C73.4666 4.72579 74.3774 5.23276 75.3935 5.58381C76.4096 5.93485 77.5094 6.12248 78.6245 6.13501C78.6515 6.13489 78.6782 6.1391 78.7029 6.14737C78.7277 6.15564 78.7499 6.16779 78.7681 6.18303C78.7874 6.19711 78.8026 6.21418 78.8127 6.2331C78.8228 6.25203 78.8274 6.27236 78.8264 6.29277C78.7574 7.55091 79.1962 8.79486 80.0832 9.85613C80.2162 9.99141 80.3096 10.147 80.357 10.3123C80.357 10.3123 80.357 10.47 80.725 17.3807C80.7293 17.4 80.7293 17.4197 80.725 17.439C80.3276 18.1668 79.7205 18.8168 78.9488 19.3405C78.1771 19.8642 77.2608 20.2482 76.268 20.4639C75.8713 20.5518 75.4603 20.5968 75.0472 20.5976ZM72.6145 18.7217C72.7799 19.2475 73.1899 19.7095 73.768 20.0215C74.1287 20.1728 74.5276 20.2633 74.938 20.287C75.3483 20.3107 75.7605 20.2669 76.1469 20.1587C77.0662 19.9514 77.9152 19.5933 78.6347 19.1093C79.3541 18.6254 79.9266 18.0272 80.3121 17.3567C80.2852 16.8354 79.9485 10.374 79.944 10.3191C79.8869 10.2128 79.8146 10.1116 79.7286 10.0173C78.8399 8.94956 78.3825 7.70543 78.4135 6.44025C76.2042 6.3845 74.1107 5.67202 72.5786 4.45451C72.0164 5.11164 71.4097 5.74584 70.7608 6.35451C70.302 6.71498 69.9025 7.11694 69.5713 7.55144C69.0417 8.31281 69.0686 9.26624 69.0956 10.1099C69.1069 11.1332 69.2391 12.1537 69.4905 13.1588C69.5339 13.3804 69.6359 13.5929 69.7902 13.7833C69.9445 13.9738 70.148 14.1382 70.3882 14.2666C70.9986 14.519 71.7068 14.5968 72.3856 14.4861C72.4152 14.4806 72.4461 14.4805 72.4757 14.4859C72.5053 14.4912 72.5329 14.5019 72.5561 14.517C72.5807 14.5317 72.6007 14.5504 72.6147 14.5718C72.6287 14.5931 72.6363 14.6166 72.6369 14.6404L72.601 18.7217H72.6145Z" fill="#231F20"/>
<path d="M72.4744 16.6433C72.4744 16.6433 74.6423 16.7188 76.0382 15.6145C76.4372 15.3333 76.7515 14.9893 76.9592 14.6061C77.1669 14.223 77.2631 13.8099 77.2411 13.3955C77.2411 13.3955 74.8981 14.5993 72.4609 14.6405L72.4744 16.6433Z" fill="#231F20"/>
<path d="M72.5712 16.7974H72.468C72.4176 16.7965 72.3696 16.7805 72.3344 16.753C72.2992 16.7254 72.2795 16.6884 72.2795 16.6499L72.248 14.6436C72.248 14.6041 72.2682 14.5663 72.3043 14.5381C72.3404 14.5099 72.3895 14.4936 72.4411 14.4927C74.7885 14.4515 77.0955 13.2854 77.118 13.2752C77.1466 13.2625 77.1791 13.2559 77.2122 13.2559C77.2453 13.2559 77.2778 13.2625 77.3065 13.2752C77.3373 13.2854 77.3642 13.3015 77.3846 13.3219C77.4051 13.3423 77.4183 13.3663 77.4232 13.3918C77.4232 13.4398 77.6252 14.5921 76.1799 15.7342C75.2 16.4292 73.9081 16.8098 72.5712 16.7974ZM72.643 14.7842L72.67 16.499C73.869 16.4847 75.0187 16.1316 75.8971 15.5078C76.5495 15.0218 76.9523 14.3733 77.0327 13.6798C75.6968 14.2956 74.1963 14.6731 72.643 14.7842Z" fill="#231F20"/>
<path d="M73.0452 8.64551C73.0452 8.64551 71.3262 10.5935 71.7346 10.9365C72.1431 11.2794 73.2876 11.0531 73.2876 11.0531" fill="white"/>
<path d="M72.5279 11.2782C72.3581 11.2889 72.1872 11.2735 72.0253 11.2329C71.8634 11.1922 71.7138 11.1272 71.5854 11.0416C71.1365 10.6678 72.2048 9.32679 72.878 8.5517C72.8919 8.53433 72.9103 8.51929 72.932 8.50748C72.9537 8.49567 72.9783 8.48734 73.0043 8.48298C73.0303 8.47863 73.0572 8.47835 73.0834 8.48215C73.1096 8.48595 73.1345 8.49376 73.1566 8.5051C73.1787 8.51645 73.1976 8.53109 73.2121 8.54816C73.2267 8.56523 73.2365 8.58437 73.2411 8.60442C73.2457 8.62448 73.2449 8.64503 73.2388 8.66485C73.2327 8.68467 73.2215 8.70334 73.2057 8.71975C72.3574 9.69032 71.738 10.678 71.8816 10.8358C72.1464 11.0587 72.9678 10.9593 73.2281 10.9078C73.2773 10.9008 73.3282 10.9082 73.3705 10.9287C73.4128 10.9493 73.4433 10.9813 73.4558 11.0183C73.4684 11.0554 73.4621 11.0947 73.4381 11.1283C73.4142 11.1619 73.3744 11.1873 73.3269 11.1993C73.0654 11.2488 72.7973 11.2753 72.5279 11.2782Z" fill="#231F20"/>
<path d="M71.2158 12.0479C71.2158 12.0479 72.7553 13.7901 75.4663 12.113L71.2158 12.0479Z" fill="white"/>
<path d="M73.2025 12.9939C73.0748 12.994 72.9473 12.9871 72.821 12.9734C72.1011 12.8825 71.4565 12.5796 71.0256 12.1297C70.9965 12.0965 70.9858 12.0558 70.9959 12.0166C71.006 11.9773 71.0361 11.9428 71.0795 11.9205C71.1008 11.909 71.1249 11.9009 71.1504 11.8968C71.1759 11.8926 71.2023 11.8925 71.2279 11.8963C71.2535 11.9002 71.2778 11.9079 71.2993 11.9192C71.3209 11.9304 71.3392 11.9448 71.3533 11.9616C71.7252 12.3363 72.2687 12.5899 72.8748 12.6716C73.6289 12.7573 74.4547 12.5275 75.3165 11.9856C75.3368 11.9732 75.3601 11.9639 75.3851 11.9584C75.4101 11.9529 75.4363 11.9512 75.4622 11.9534C75.488 11.9557 75.5131 11.9618 75.5358 11.9714C75.5586 11.9811 75.5786 11.9941 75.5948 12.0096C75.6119 12.0247 75.6248 12.0423 75.6328 12.0614C75.6407 12.0804 75.6435 12.1005 75.641 12.1204C75.6385 12.1402 75.6307 12.1595 75.6181 12.1771C75.6056 12.1946 75.5885 12.21 75.5679 12.2223C74.9182 12.6788 74.0833 12.9512 73.2025 12.9939Z" fill="#231F20"/>
<path d="M66.1585 40.0586C66.1057 40.0559 66.0564 40.0376 66.0211 40.0074C65.9858 39.9773 65.9675 39.9378 65.9699 39.8974L67.2447 23.696C67.2452 23.6761 67.251 23.6566 67.2619 23.6385C67.2727 23.6205 67.2883 23.6044 67.3077 23.5912C67.3271 23.578 67.3498 23.568 67.3745 23.5618C67.3992 23.5557 67.4253 23.5535 67.4511 23.5553C67.4777 23.5557 67.5038 23.5603 67.528 23.5688C67.5521 23.5772 67.5737 23.5894 67.5914 23.6045C67.6091 23.6197 67.6225 23.6374 67.6308 23.6567C67.6391 23.676 67.6421 23.6963 67.6396 23.7165L66.3649 39.9145C66.3638 39.9344 66.3575 39.9538 66.3465 39.9718C66.3355 39.9898 66.32 40.0059 66.3008 40.0193C66.2816 40.0327 66.2592 40.043 66.2347 40.0498C66.2103 40.0565 66.1844 40.0595 66.1585 40.0586Z" fill="#231F20"/>
<path d="M90.4473 41.965C90.6044 42.3079 95.6807 53.5228 89.8593 57.5285C83.6518 61.795 52.2554 59.5486 52.2554 59.5486L48.8263 51.465C48.4448 48.5944 48.2518 46.5709 55.5948 46.0462L65.8732 44.4377L66.1605 39.9072L90.4473 41.965Z" fill="#231F20"/>
<path d="M69.4273 60.2895H68.7136C60.1857 60.2621 52.2995 59.7031 52.2232 59.6996C52.1842 59.6968 52.1471 59.6853 52.1168 59.6663C52.0864 59.6474 52.0641 59.622 52.0527 59.5933L48.628 51.5132C48.4216 50.0076 48.233 48.6152 49.3282 47.5966C50.3246 46.6671 52.3085 46.1287 55.5626 45.8818L65.6705 44.3007L65.9488 39.8834C65.9504 39.8628 65.9576 39.8427 65.9699 39.8244C65.9823 39.8061 65.9996 39.79 66.0206 39.7771C66.0404 39.7633 66.0639 39.753 66.0896 39.7471C66.1152 39.7412 66.1422 39.7397 66.1687 39.7428L90.4555 41.8005C90.4932 41.8037 90.5289 41.8151 90.5583 41.8333C90.5878 41.8516 90.6097 41.8759 90.6215 41.9034L90.433 41.9514L90.6305 41.9274C91.1601 43.1244 95.6396 53.7321 89.9797 57.6247C87.4348 59.3978 80.5137 60.2895 69.4273 60.2895ZM52.4028 59.4047C54.6066 59.5556 83.853 61.4625 89.7284 57.4155C95.1144 53.7115 90.9312 43.5565 90.2984 42.1023L66.3482 40.0857L66.0745 44.4551C66.0714 44.4888 66.0539 44.5208 66.0247 44.5462C65.9955 44.5716 65.9562 44.589 65.9129 44.5957L55.6344 46.2041C52.4701 46.4305 50.5715 46.9381 49.6469 47.7989C48.655 48.7181 48.8345 50.0522 49.023 51.4617L52.4028 59.4047Z" fill="#231F20"/>
<path d="M57.4658 52.2447C57.4658 52.2447 55.8365 46.2463 49.9118 47.6044C43.9871 48.9626 57.1695 71.2687 57.1695 72.7331C57.1695 74.1976 52.1335 78.6183 52.1335 78.6183C53.572 78.5595 55.0056 78.445 56.4289 78.2754C57.9864 78.049 62.2639 73.2956 62.4299 72.788C62.596 72.2804 59.4676 56.5488 57.4658 52.2447Z" fill="white"/>
<path d="M52.1321 78.7776C52.0936 78.7774 52.0559 78.7689 52.0234 78.7531C51.9909 78.7373 51.9648 78.715 51.9481 78.6885C51.9308 78.6606 51.9246 78.6296 51.9302 78.5991C51.9358 78.5687 51.9529 78.5401 51.9795 78.517C53.3664 77.2995 56.9661 73.8939 56.9661 72.7347C56.9661 72.3917 56.1088 70.6598 55.0226 68.458C51.8807 62.0789 46.6113 51.3991 48.6221 48.2919C48.7385 48.0941 48.9082 47.9173 49.1201 47.7731C49.332 47.6289 49.5814 47.5205 49.852 47.4551C50.5349 47.2743 51.2608 47.208 51.9803 47.2607C52.6998 47.3134 53.3961 47.4838 54.0217 47.7603C56.7147 48.9847 57.6124 51.9684 57.6618 52.2188C59.5828 56.3583 62.8235 72.1722 62.6305 72.8376C62.4913 73.3143 58.1421 78.2015 56.4679 78.4484C55.0357 78.6188 53.593 78.7333 52.1455 78.7913L52.1321 78.7776ZM51.5845 47.5682C51.0364 47.5708 50.4919 47.6355 49.9687 47.7603C49.7508 47.8143 49.5506 47.9036 49.3818 48.0219C49.2129 48.1403 49.0794 48.285 48.9902 48.4462C47.0557 51.43 52.4867 62.4459 55.4086 68.3619C56.7013 70.9856 57.3745 72.3711 57.3745 72.7484C57.3745 74.0551 53.7255 77.4435 52.6034 78.4552C53.4606 78.4107 55.256 78.3043 56.3916 78.1397C57.8234 77.9305 62.0874 73.256 62.2265 72.769C62.3656 72.282 59.3046 56.6807 57.2893 52.3148C57.2893 52.3148 57.2893 52.3148 57.2893 52.2942C57.2893 52.2737 56.423 49.2076 53.8332 48.0415C53.1559 47.7264 52.3774 47.5614 51.5845 47.5648V47.5682Z" fill="#231F20"/>
<path d="M51.84 78.2412C51.4266 78.2742 51.0317 78.389 50.694 78.5743C50.3564 78.7595 50.0877 79.0087 49.9145 79.2975C49.3714 80.2783 51.7099 80.8442 53.8643 80.9197C55.7491 80.9751 57.6333 80.7967 59.4434 80.3915C60.1669 80.1204 60.8066 79.7346 61.3196 79.2597C61.3196 79.2597 61.3195 80.467 61.8626 80.4292C62.6401 80.3993 63.4148 80.3364 64.1831 80.2406C64.3806 80.1652 63.5413 75.4872 62.4327 72.7881C62.4327 72.7881 57.9443 77.6375 56.5304 77.8639C55.1166 78.0902 51.84 78.2412 51.84 78.2412Z" fill="#231F20"/>
<path d="M54.4928 81.081C54.2818 81.081 54.0664 81.081 53.8554 81.081C52.3518 81.0296 50.3859 80.7175 49.8159 80.0144C49.7213 79.9016 49.6655 79.7723 49.6537 79.6386C49.6419 79.5049 49.6746 79.3711 49.7485 79.2496C49.9334 78.9341 50.2243 78.6616 50.5917 78.4598C50.9591 78.258 51.3898 78.1341 51.8401 78.1007C51.8715 78.1007 55.0987 77.9464 56.4991 77.7269C57.6122 77.5486 61.0503 74.0469 62.2802 72.7128C62.3008 72.6891 62.3301 72.6706 62.3644 72.6596C62.3988 72.6486 62.4366 72.6457 62.4732 72.6511C62.5094 72.6551 62.5435 72.6669 62.5713 72.6851C62.5991 72.7033 62.6195 72.7272 62.6303 72.754C63.2131 74.3026 63.6688 75.8776 63.9947 77.4697C64.5872 80.2511 64.3897 80.3265 64.273 80.3711C63.6512 80.479 63.0165 80.5376 62.3789 80.546L61.8807 80.5769C61.816 80.5814 61.7508 80.5752 61.6896 80.5586C61.6284 80.5421 61.5726 80.5155 61.5261 80.4809C61.2852 80.2339 61.1532 79.9349 61.1491 79.6269C60.6907 80.0095 60.1347 80.3165 59.5153 80.5289C57.8851 80.8984 56.1932 81.0844 54.4928 81.081ZM51.8536 78.3922C51.4763 78.4216 51.1157 78.526 50.8077 78.6951C50.4998 78.8642 50.2553 79.0921 50.0986 79.356C50.0491 79.4328 50.0268 79.5181 50.0339 79.6036C50.041 79.689 50.0772 79.7715 50.139 79.843C50.5385 80.3265 52.0735 80.7072 53.8734 80.7689C55.7325 80.824 57.5909 80.6479 59.3762 80.2477C60.0677 79.9869 60.6795 79.6176 61.1715 79.1639C61.1974 79.1398 61.2323 79.1225 61.2716 79.1142C61.3109 79.1059 61.3525 79.1071 61.3909 79.1176C61.4292 79.1282 61.4623 79.1475 61.4857 79.173C61.5092 79.1984 61.5217 79.2288 61.5216 79.2599C61.5216 79.6029 61.6069 80.131 61.7954 80.2614C61.8023 80.267 61.8107 80.2714 61.82 80.2743C61.8292 80.2773 61.8392 80.2787 61.8493 80.2785L62.352 80.2477C62.8008 80.2202 63.7209 80.1653 64.0217 80.1208C64.0576 79.5103 63.3349 75.6451 62.3654 73.1278C61.36 74.1978 57.877 77.8023 56.5754 78.0115C55.0108 78.1988 53.4349 78.3259 51.8536 78.3922Z" fill="#231F20"/>
<path d="M71.0971 72.8084C71.0971 72.8084 68.5253 53.414 67.3403 49.7923C66.1554 46.1707 59.342 45.0389 57.2683 49.4151C55.1947 53.7912 65.4642 70.9976 64.6742 72.8084C63.8843 74.6192 60.9219 78.1551 60.9219 78.1551C60.9219 78.1551 64.0638 79.3624 66.3529 78.1551C68.642 76.9479 71.0971 72.8084 71.0971 72.8084Z" fill="white"/>
<path d="M63.9313 78.8614C62.8597 78.8423 61.8051 78.6531 60.8343 78.3058C60.8087 78.2955 60.786 78.2814 60.7675 78.2643C60.749 78.2472 60.7351 78.2275 60.7266 78.2063C60.7132 78.163 60.7229 78.1174 60.7535 78.0795C60.7805 78.0452 63.7114 74.5298 64.4834 72.7567C64.7662 72.1085 63.3254 68.8916 61.7904 65.4894C59.0973 59.5219 55.7759 52.1139 57.073 49.3703C57.9707 47.4394 59.9501 46.3385 62.3155 46.4345C63.5358 46.4934 64.6998 46.8475 65.6391 47.4456C66.5784 48.0437 67.2442 48.8547 67.54 49.7612C68.716 53.352 71.2699 72.6058 71.2968 72.7979C71.3054 72.8249 71.3054 72.8531 71.2968 72.8802C71.1936 73.0517 68.7788 77.0814 66.4852 78.299C65.7316 78.6855 64.8386 78.8821 63.9313 78.8614ZM61.2383 78.0966C61.9654 78.3298 64.434 79.002 66.2518 78.0349C68.3389 76.9271 70.646 73.1991 70.9018 72.7807C70.7672 71.7518 68.2986 53.3177 67.1585 49.8298C66.8836 48.9889 66.2658 48.2366 65.3944 47.6817C64.5229 47.1268 63.4431 46.7981 62.311 46.7432C60.1476 46.654 58.3298 47.6795 57.477 49.4869C56.2292 52.1174 59.6763 59.7962 62.1943 65.4036C64.1243 69.6941 65.1971 72.16 64.8874 72.8733C64.1692 74.4715 61.8083 77.3867 61.2248 78.0966H61.2383Z" fill="#231F20"/>
<path d="M60.9241 78.1548C60.0236 78.4756 59.2046 78.9156 58.5049 79.4546C57.6925 80.192 56.9519 80.5315 58.056 81.0974C59.1602 81.6633 66.1352 81.2654 67.0912 81.0391C68.0472 80.8127 69.6855 79.0602 69.6855 79.0602C69.6855 79.0602 69.6092 81.0391 69.9054 81.0974C70.5628 81.0768 71.2164 81.0102 71.8579 80.8985C72.0806 78.1942 71.8315 75.4793 71.1173 72.8252C71.1173 72.8252 68.716 76.975 65.6908 77.8118C62.6656 78.6487 60.9241 78.1548 60.9241 78.1548Z" fill="#231F20"/>
<path d="M61.2223 81.5479C59.7186 81.5479 58.408 81.4656 57.9502 81.2358C57.7899 81.1744 57.6491 81.0871 57.5375 80.9799C57.4259 80.8727 57.3462 80.7482 57.3039 80.615C57.2545 80.2995 57.5732 80.0286 57.9816 79.689L58.3542 79.3701C59.0688 78.8107 59.9116 78.3562 60.8407 78.0291C60.8897 78.0139 60.9444 78.0139 60.9934 78.0291C60.9934 78.0291 62.7034 78.5024 65.6209 77.6862C68.5384 76.8699 70.8903 72.7921 70.9127 72.751C70.9302 72.722 70.959 72.6978 70.9952 72.6818C71.0313 72.6659 71.0731 72.6589 71.1147 72.6618C71.1566 72.6653 71.1961 72.6788 71.2275 72.7003C71.2588 72.7219 71.2806 72.7503 71.2898 72.7818C72.0025 75.4511 72.2515 78.1806 72.0303 80.8997C72.0281 80.9318 72.0118 80.9624 71.9842 80.9867C71.9565 81.0109 71.9191 81.0274 71.8777 81.0334C71.2193 81.1666 70.5432 81.2426 69.8624 81.2598C69.7278 81.2324 69.4585 81.1809 69.4764 79.545C68.9289 80.0869 67.8875 81.03 67.1514 81.2049C65.1914 81.4478 63.2078 81.5625 61.2223 81.5479ZM60.935 78.3275C60.0855 78.6344 59.3136 79.0535 58.6549 79.5656C58.5247 79.6822 58.3946 79.7919 58.2779 79.8914C57.9367 80.176 57.6674 80.399 57.6989 80.5773C57.6989 80.6973 57.8694 80.8311 58.1477 80.982C59.1441 81.4896 65.9351 81.1603 67.0123 80.9065C67.7529 80.7351 69.059 79.4593 69.5034 78.9825C69.5279 78.9558 69.563 78.9359 69.6035 78.9258C69.6441 78.9156 69.6878 78.9157 69.7283 78.9261C69.7687 78.9366 69.8036 78.9567 69.8278 78.9836C69.852 79.0104 69.8641 79.0426 69.8624 79.0751C69.8103 79.7065 69.851 80.3404 69.9836 80.9649C70.5372 80.9276 71.0863 80.8588 71.6264 80.7591C71.8121 78.2599 71.5996 75.7528 70.9935 73.2928C70.2978 74.3903 68.2646 77.2609 65.7331 77.9674C63.0221 78.7322 61.3255 78.4201 60.935 78.3275Z" fill="#231F20"/>
<path d="M91.7773 50.2194C92.087 50.5623 93.0745 57.9806 93.0745 57.9806C93.0745 57.9806 104.08 58.7419 104.237 58.152C104.394 57.5621 98.6267 56.0634 98.6267 56.0634L96.8313 50.1816" fill="white"/>
<path d="M102.011 58.5311C101.185 58.5311 100.077 58.5071 98.5819 58.4419C95.8395 58.3287 93.0791 58.1401 93.0522 58.1367C93.0042 58.1337 92.9592 58.118 92.9248 58.0923C92.8903 58.0667 92.8687 58.0326 92.8637 57.9961C92.4911 55.1941 91.8179 50.6224 91.5979 50.3C91.5829 50.283 91.5725 50.2638 91.5673 50.2437C91.5621 50.2235 91.5622 50.2028 91.5676 50.1826C91.5731 50.1625 91.5837 50.1434 91.5989 50.1265C91.6142 50.1095 91.6337 50.0951 91.6563 50.084C91.7029 50.0618 91.759 50.0545 91.8127 50.0634C91.8663 50.0724 91.9133 50.097 91.9435 50.132C92.2488 50.4749 93.0028 55.9623 93.2542 57.8349C98.151 58.1778 103.393 58.3527 104.026 58.0955C103.833 57.7526 101.077 56.8609 98.5595 56.2092C98.527 56.2013 98.4979 56.187 98.475 56.1678C98.4522 56.1485 98.4364 56.1249 98.4293 56.0995L96.6339 50.2143C96.6218 50.1738 96.631 50.1313 96.6595 50.096C96.6881 50.0607 96.7337 50.0354 96.7865 50.0257C96.84 50.0174 96.8956 50.0253 96.9416 50.0477C96.9877 50.07 97.0206 50.1052 97.0334 50.1457L98.8288 55.9417C101.073 56.5213 104.628 57.5571 104.466 58.1778C104.394 58.3287 104.341 58.5311 102.011 58.5311Z" fill="#231F20"/>
<path d="M93.1732 23.9688L100.682 51.9372L90.3275 52.1429C90.3275 52.1429 86.7368 37.3339 86.5169 35.1115C86.297 32.8891 93.1732 23.9688 93.1732 23.9688Z" fill="#D1243A"/>
<path d="M70.2183 10.06C71.5098 10.06 72.5568 9.25999 72.5568 8.27315C72.5568 7.28632 71.5098 6.48633 70.2183 6.48633C68.9268 6.48633 67.8799 7.28632 67.8799 8.27315C67.8799 9.25999 68.9268 10.06 70.2183 10.06Z" fill="white"/>
<path d="M70.2243 10.2188H70.1211C69.619 10.2043 69.1338 10.0763 68.7268 9.85106C68.3199 9.62581 68.0095 9.31341 67.835 8.95337C67.6604 8.59333 67.6295 8.20182 67.7462 7.82836C67.8628 7.4549 68.1218 7.11627 68.4904 6.85529C68.8589 6.5943 69.3205 6.42269 69.8167 6.36217C70.3129 6.30164 70.8215 6.3549 71.278 6.51524C71.7346 6.67557 72.1187 6.93576 72.3818 7.2629C72.6448 7.59004 72.775 7.96944 72.7558 8.35311H72.5493H72.7558C72.7292 8.85387 72.4506 9.32744 71.9781 9.67505C71.5056 10.0227 70.8757 10.2175 70.2198 10.2188H70.2243ZM70.2243 6.64517C69.6151 6.65376 69.0349 6.84582 68.61 7.17959C68.1851 7.51335 67.9499 7.96181 67.9555 8.4274C67.9612 8.893 68.2072 9.33806 68.64 9.66578C69.0729 9.9935 69.6576 10.1774 70.267 10.1774C70.8763 10.1774 71.461 9.9935 71.8939 9.66578C72.3268 9.33806 72.5728 8.893 72.5784 8.4274C72.584 7.96181 72.3488 7.51335 71.9239 7.17959C71.499 6.84582 70.9189 6.65376 70.3096 6.64517H70.2243Z" fill="#231F20"/>
<path d="M75.3707 10.2192C76.6622 10.2192 77.7091 9.41917 77.7091 8.43233C77.7091 7.4455 76.6622 6.64551 75.3707 6.64551C74.0792 6.64551 73.0322 7.4455 73.0322 8.43233C73.0322 9.41917 74.0792 10.2192 75.3707 10.2192Z" fill="white"/>
<path d="M75.3688 10.3729H75.2656C74.7646 10.3546 74.2818 10.2237 73.8776 9.99679C73.4734 9.76984 73.1659 9.45684 72.9934 9.09696C72.8209 8.73709 72.7912 8.34633 72.9079 7.97361C73.0247 7.60088 73.2827 7.26276 73.6498 7.00156C74.0196 6.74091 74.4822 6.56987 74.9791 6.51003C75.4761 6.45019 75.9851 6.50425 76.4419 6.66537C76.8987 6.82648 77.2827 7.08743 77.5455 7.41525C77.8082 7.74306 77.938 8.12303 77.9182 8.50715C77.8927 9.00879 77.6138 9.48336 77.1401 9.83123C76.6664 10.1791 76.0348 10.3732 75.3778 10.3729H75.3688ZM75.3688 6.79921C75.0888 6.79515 74.8106 6.83328 74.5499 6.9114C74.2892 6.98953 74.0512 7.10612 73.8494 7.25452C73.442 7.55424 73.2071 7.96535 73.1964 8.3974C73.1857 8.82946 73.4001 9.24707 73.7923 9.55836C74.1846 9.86966 74.7226 10.0491 75.288 10.0573C75.5681 10.0679 75.8481 10.0351 76.1111 9.96085C76.3742 9.88658 76.6148 9.77241 76.8186 9.6252C77.0247 9.48047 77.1911 9.30589 77.3083 9.1116C77.4254 8.91732 77.4908 8.7072 77.5008 8.49343C77.5178 8.06339 77.3109 7.64575 76.9256 7.33203C76.5402 7.01832 76.0079 6.83411 75.4451 6.81979L75.3688 6.79921Z" fill="#231F20"/>
<path d="M58.8868 37.8417C58.8587 37.8418 58.8309 37.8373 58.8053 37.8284C58.7797 37.8196 58.757 37.8065 58.7387 37.7902L48.7475 28.9899C48.73 28.9747 48.7167 28.957 48.7084 28.9378C48.7 28.9186 48.6968 28.8983 48.6989 28.8782C48.701 28.858 48.7083 28.8384 48.7205 28.8205C48.7328 28.8025 48.7496 28.7867 48.77 28.7738C48.788 28.7595 48.8096 28.7481 48.8335 28.7403C48.8574 28.7325 48.8831 28.7285 48.9091 28.7285C48.9351 28.7285 48.9608 28.7325 48.9847 28.7403C49.0086 28.7481 49.0302 28.7595 49.0482 28.7738L59.0394 37.5741C59.0568 37.589 59.07 37.6065 59.0783 37.6254C59.0866 37.6443 59.0898 37.6643 59.0877 37.6841C59.0856 37.704 59.0783 37.7234 59.0661 37.741C59.054 37.7586 59.0372 37.7742 59.017 37.7868C59.0015 37.8023 58.9819 37.8153 58.9595 37.8247C58.9371 37.8342 58.9123 37.8399 58.8868 37.8417Z" fill="#231F20"/>
<path d="M40.3799 11.8825L49.8549 9.10449L50.7077 12.4243L41.1609 14.7668L40.3799 11.8825Z" fill="#E6E7E8"/>
<path d="M70.4242 8.08259C70.4362 7.84979 70.3134 7.65709 70.1499 7.65219C69.9864 7.64728 69.8442 7.83202 69.8322 8.06481C69.8203 8.29761 69.9431 8.49031 70.1066 8.49521C70.27 8.50012 70.4123 8.31538 70.4242 8.08259Z" fill="#231F20"/>
<path d="M75.7006 8.32575C75.7126 8.09295 75.5897 7.90025 75.4263 7.89534C75.2628 7.89044 75.1206 8.07518 75.1086 8.30797C75.0966 8.54077 75.2194 8.73347 75.3829 8.73838C75.5464 8.74329 75.6886 8.55854 75.7006 8.32575Z" fill="#231F20"/>
<path d="M82.3742 9.87569C82.3232 9.87499 82.2744 9.85988 82.2371 9.83329C82.1998 9.80669 82.1767 9.77048 82.1722 9.73165C82.069 8.79194 78.9316 8.7645 77.7287 8.83309C77.7018 8.83497 77.6747 8.8327 77.649 8.82643C77.6233 8.82016 77.5994 8.81001 77.5789 8.79658C77.5584 8.78315 77.5416 8.76671 77.5296 8.74824C77.5176 8.72977 77.5105 8.70964 77.5088 8.68905C77.5096 8.65061 77.5287 8.61371 77.5626 8.5853C77.5965 8.55688 77.6428 8.53889 77.6928 8.53472C78.1776 8.50728 82.4191 8.3015 82.5762 9.71793C82.5787 9.73866 82.5757 9.75956 82.5676 9.77943C82.5594 9.79929 82.5462 9.81772 82.5287 9.83366C82.5111 9.8496 82.4897 9.86273 82.4655 9.8723C82.4413 9.88187 82.4148 9.88769 82.3877 9.88941L82.3742 9.87569Z" fill="#231F20"/>
<path d="M78.2432 9.96093C78.3267 9.65794 78.5361 9.38368 78.8401 9.17898C79.1349 9.00029 79.4673 8.86113 79.8231 8.76743C80.0108 8.70284 80.2142 8.66896 80.42 8.66797C80.565 8.68181 80.7052 8.71674 80.833 8.77086C81.1466 8.87864 81.3996 9.06834 81.5466 9.30588C81.6342 9.50562 81.6573 9.71859 81.614 9.92663C81.5897 10.1549 81.5263 10.3797 81.4254 10.5954C81.3199 10.8104 81.159 11.007 80.9521 11.1736C80.7453 11.3402 80.4968 11.4733 80.2214 11.5651C79.9459 11.6569 79.6491 11.7055 79.3487 11.708C79.0482 11.7105 78.7501 11.6669 78.4721 11.5797" fill="white"/>
<path d="M79.3083 11.8408C79.0007 11.84 78.6961 11.7946 78.4106 11.7071C78.3874 11.7011 78.366 11.6916 78.3478 11.6791C78.3296 11.6665 78.3149 11.6513 78.3047 11.6343C78.2944 11.6173 78.2889 11.5989 78.2883 11.5801C78.2877 11.5614 78.2922 11.5428 78.3014 11.5255C78.3106 11.5081 78.3244 11.4924 78.3418 11.4792C78.3593 11.4661 78.3801 11.4558 78.4029 11.4491C78.4258 11.4423 78.4502 11.4392 78.4747 11.4399C78.4992 11.4406 78.5232 11.4452 78.5453 11.4533C78.8022 11.5335 79.0776 11.5737 79.3551 11.5714C79.6326 11.5692 79.9068 11.5246 80.1615 11.4402C80.4161 11.3559 80.6461 11.2335 80.838 11.0802C81.0299 10.927 81.1797 10.746 81.2787 10.5478C81.3747 10.3434 81.4336 10.13 81.4538 9.91337C81.495 9.72643 81.4766 9.53465 81.3999 9.35434C81.2678 9.14942 81.0453 8.98669 80.7715 8.89478C80.665 8.84822 80.5476 8.81794 80.4259 8.80561C80.2475 8.80636 80.0713 8.83679 79.9098 8.89478C79.573 8.98412 79.2576 9.11504 78.9762 9.28232C78.7016 9.46726 78.5127 9.71509 78.4376 9.98882C78.4268 10.0238 78.399 10.0543 78.3598 10.074C78.3205 10.0938 78.2729 10.1013 78.2266 10.0951C78.1803 10.0877 78.1397 10.0666 78.1136 10.0364C78.0876 10.0062 78.0782 9.9694 78.0875 9.93395C78.1785 9.60143 78.4085 9.30053 78.7428 9.07655C79.0519 8.88741 79.401 8.7401 79.7751 8.64099C79.9888 8.56585 80.2223 8.52946 80.4574 8.53467C80.6247 8.54844 80.7865 8.58812 80.9331 8.65128C81.2851 8.7721 81.5675 8.98665 81.7276 9.25489C81.8277 9.47504 81.854 9.71089 81.8039 9.94081C81.7806 10.1821 81.7142 10.4198 81.6064 10.6473C81.3654 11.1072 80.8981 11.4766 80.3048 11.6762C79.9914 11.7838 79.6519 11.8399 79.3083 11.8408Z" fill="#231F20"/>
<path d="M90.1761 51.6233C90.1278 51.623 90.0812 51.6099 90.0443 51.5861C90.0074 51.5622 89.9825 51.5293 89.9741 51.493L83.8789 23.0581C83.8744 23.0381 83.8751 23.0175 83.881 22.9977C83.887 22.9779 83.898 22.9591 83.9134 22.9426C83.9288 22.926 83.9484 22.9119 83.971 22.9011C83.9935 22.8904 84.0187 22.8831 84.045 22.8798C84.0715 22.8758 84.0989 22.876 84.1253 22.8803C84.1518 22.8846 84.1769 22.8929 84.1991 22.9047C84.2212 22.9166 84.2401 22.9317 84.2545 22.9492C84.2689 22.9667 84.2785 22.9863 84.2828 23.0067L90.3781 51.4415C90.3826 51.4618 90.3817 51.4826 90.3755 51.5026C90.3693 51.5226 90.3579 51.5415 90.342 51.5581C90.3261 51.5748 90.306 51.5888 90.2829 51.5994C90.2598 51.61 90.2342 51.6169 90.2075 51.6199L90.1761 51.6233Z" fill="#231F20"/>
<path d="M71.7725 44.8034C71.7429 44.8079 71.7123 44.8079 71.6827 44.8034C69.3353 44.0008 65.9645 44.6147 65.9286 44.6182C65.9003 44.6238 65.8708 44.6251 65.8418 44.6219C65.8129 44.6187 65.7851 44.6111 65.76 44.5996C65.7349 44.5881 65.7131 44.5729 65.6958 44.5549C65.6785 44.5369 65.6661 44.5164 65.6593 44.4947C65.6519 44.4726 65.6504 44.4497 65.6548 44.4271C65.6592 44.4046 65.6694 44.383 65.6849 44.3635C65.7003 44.344 65.7207 44.3271 65.7448 44.3137C65.769 44.3003 65.7963 44.2907 65.8253 44.2855C65.969 44.2581 69.3802 43.6373 71.8667 44.4913C71.9208 44.51 71.963 44.5443 71.984 44.5867C72.0051 44.6292 72.0032 44.6762 71.979 44.7176C71.9579 44.7448 71.9276 44.7672 71.8912 44.7823C71.8549 44.7974 71.8138 44.8047 71.7725 44.8034Z" fill="white"/>
<path d="M84.7486 39.2528C84.7118 39.2533 84.6756 39.2449 84.6454 39.2288L79.5914 36.9755C79.5449 36.9547 79.5109 36.9208 79.4966 36.8811C79.4823 36.8414 79.489 36.7989 79.5151 36.7629C79.5432 36.7271 79.5884 36.701 79.6411 36.6901C79.6939 36.6793 79.7501 36.6844 79.7979 36.7046L84.8743 38.9578C84.9212 38.9793 84.9553 39.0138 84.9695 39.0541C84.9838 39.0944 84.977 39.1373 84.9506 39.1739C84.9299 39.2001 84.9 39.2214 84.8643 39.2353C84.8286 39.2492 84.7886 39.2553 84.7486 39.2528Z" fill="#231F20"/>
<path d="M68.3208 37.8997C68.2898 37.9004 68.259 37.8955 68.2309 37.8853C68.2028 37.8752 68.1783 37.8602 68.1592 37.8414C68.1421 37.8255 68.1294 37.8072 68.1217 37.7875C68.114 37.7678 68.1116 37.7471 68.1145 37.7266C68.1174 37.7062 68.1257 37.6864 68.1387 37.6684C68.1518 37.6504 68.1695 37.6346 68.1907 37.6219L71.2248 35.7562C71.245 35.7397 71.2697 35.7266 71.297 35.718C71.3244 35.7094 71.3539 35.7053 71.3835 35.7062C71.4131 35.707 71.4421 35.7127 71.4685 35.7229C71.495 35.733 71.5183 35.7474 71.5368 35.7651C71.5554 35.7827 71.5687 35.8032 71.576 35.8251C71.5833 35.8471 71.5843 35.8699 71.5789 35.8922C71.5736 35.9145 71.5621 35.9356 71.5451 35.9541C71.5282 35.9727 71.5062 35.9882 71.4807 35.9997L68.4465 37.8654C68.4115 37.8882 68.3668 37.9004 68.3208 37.8997Z" fill="#231F20"/>
<path d="M31.3271 69.4981C32.2863 68.8417 33.3717 68.3015 34.5453 67.8965C34.644 70.527 33.2481 72.9449 31.9555 74.6014H27.7588" fill="white"/>
<path d="M31.9564 74.7819H27.7598C27.7291 74.7819 27.6988 74.7773 27.6705 74.7683C27.6421 74.7593 27.6164 74.7462 27.5947 74.7296C27.5731 74.7131 27.5559 74.6934 27.5441 74.6718C27.5324 74.6501 27.5264 74.627 27.5264 74.6035C27.5264 74.5801 27.5324 74.5569 27.5441 74.5353C27.5559 74.5136 27.5731 74.494 27.5947 74.4774C27.6164 74.4609 27.6421 74.4477 27.6705 74.4388C27.6988 74.4298 27.7291 74.4252 27.7598 74.4252H31.8263C32.9888 72.9127 34.3173 70.6526 34.3218 68.173C33.2947 68.5623 32.3394 69.0535 31.4807 69.634C31.4377 69.6667 31.3796 69.6851 31.3191 69.6851C31.2585 69.6851 31.2004 69.6667 31.1575 69.634C31.1145 69.6007 31.0903 69.5557 31.0903 69.5089C31.0903 69.462 31.1145 69.417 31.1575 69.3837C32.1342 68.7107 33.2428 68.1587 34.443 67.7478C34.4776 67.7374 34.5148 67.7334 34.5518 67.7362C34.5887 67.7391 34.6243 67.7486 34.6554 67.764C34.6866 67.7794 34.7125 67.8003 34.731 67.8249C34.7495 67.8496 34.76 67.8772 34.7617 67.9055C34.8604 70.6183 33.3882 73.1014 32.136 74.7064C32.1158 74.7288 32.089 74.7473 32.0579 74.7604C32.0267 74.7735 31.992 74.7808 31.9564 74.7819Z" fill="#231F20"/>
<path d="M25.3125 70.2083C26.3448 66.0928 30.5594 63.5068 30.5594 63.5068C31.3461 65.4433 31.6073 67.4821 31.327 69.4984C31.1084 71.2371 30.6217 72.9501 29.8772 74.6016H25.3574" fill="white"/>
<path d="M29.8755 74.7804H25.3556C25.3252 74.7804 25.2951 74.7757 25.267 74.7667C25.2389 74.7577 25.2135 74.7445 25.1922 74.7279C25.1709 74.7113 25.1541 74.6916 25.1428 74.67C25.1316 74.6484 25.1261 74.6253 25.1267 74.602C25.1267 74.5553 25.1507 74.5105 25.1935 74.4771C25.2363 74.4438 25.2945 74.4246 25.3556 74.4237H29.7094C30.4176 72.8235 30.883 71.1664 31.0963 69.4851C31.3592 67.5821 31.1382 65.6582 30.4455 63.8194C29.5209 64.4573 26.4059 66.8306 25.5352 70.2396C25.5313 70.2633 25.5211 70.2862 25.5053 70.3068C25.4894 70.3274 25.4681 70.3453 25.4428 70.3594C25.4175 70.3735 25.3887 70.3835 25.3582 70.3887C25.3277 70.3939 25.296 70.3943 25.2653 70.3899C25.2345 70.3854 25.2053 70.3762 25.1794 70.3627C25.1535 70.3493 25.1315 70.332 25.1147 70.3118C25.098 70.2916 25.0868 70.269 25.0819 70.2453C25.077 70.2217 25.0785 70.1976 25.0863 70.1744C26.1232 66.0589 30.3782 63.3975 30.4186 63.3701C30.4475 63.3519 30.482 63.3395 30.5189 63.3341C30.5557 63.3287 30.5938 63.3305 30.6295 63.3392C30.665 63.3472 30.6975 63.3617 30.7241 63.3814C30.7506 63.4012 30.7706 63.4255 30.7821 63.4524C31.5818 65.4116 31.8476 67.4752 31.5631 69.5159C31.3415 71.269 30.8489 72.9959 30.0954 74.6603C30.0808 74.6959 30.0514 74.7268 30.0117 74.7485C29.972 74.7701 29.9242 74.7813 29.8755 74.7804Z" fill="#231F20"/>
<path d="M23.0829 74.6026H27.0821C27.118 73.6972 26.8487 72.3288 25.565 70.5522C25.4797 70.4322 25.3944 70.319 25.3091 70.2093C22.9931 67.2118 20.8746 67.2461 20.8746 67.2461C19.9814 70.3979 21.871 73.2102 23.0829 74.6026Z" fill="white"/>
<path d="M27.0776 74.7815H23.0784C23.0402 74.7818 23.0025 74.7746 22.9688 74.7609C22.935 74.7471 22.9064 74.7271 22.8854 74.7027C21.6556 73.2862 19.7435 70.4294 20.6412 67.209C20.6506 67.1696 20.6778 67.134 20.7179 67.1083C20.7581 67.0826 20.8087 67.0685 20.8611 67.0684C20.9644 67.0684 23.1412 67.0684 25.5021 70.1207C25.5874 70.2339 25.6727 70.3471 25.758 70.4637C27.1045 72.3225 27.3379 73.7424 27.302 74.6066C27.3009 74.6522 27.277 74.6957 27.2353 74.7282C27.1936 74.7607 27.1371 74.7798 27.0776 74.7815ZM23.2041 74.4386H26.8487C26.8487 73.6052 26.5659 72.3157 25.3585 70.666L25.1071 70.3231C23.2714 67.9498 21.5927 67.5348 21.0676 67.4628C20.2956 70.4088 22.0326 73.0564 23.2041 74.4283V74.4386Z" fill="#231F20"/>
<path d="M23.8091 79.449H31.6503L32.9161 74.6064H22.5479L23.8091 79.449Z" fill="#231F20"/>
</svg>
