<svg width="121" height="41" viewBox="0 0 121 41" fill="none" xmlns="http://www.w3.org/2000/svg">
<path d="M45.9453 39.974V19.3916H51.3299L59.064 29.9783C59.3305 30.399 59.5757 30.833 59.7983 31.2787C60.1386 31.9302 60.5138 32.7058 60.9241 33.6055C60.8122 32.7527 60.7308 31.9935 60.68 31.328C60.6291 30.6625 60.6034 30.072 60.6029 29.5565V19.3918H65.9595V39.974H60.6023L52.8682 29.3453C52.5916 28.9281 52.3416 28.4938 52.1196 28.0448C51.7793 27.3935 51.4086 26.6272 51.0078 25.7461C51.1196 26.6084 51.2009 27.3724 51.2519 28.0379C51.3028 28.7034 51.3284 29.2938 51.3288 29.8092V39.974H45.9453ZM71.7823 39.974V19.3916H84.3274V23.9046H77.2233V27.4752H83.9224V31.8898H77.2233V35.3623H84.3279V39.974H71.7823ZM89.4518 39.974V19.3916H101.997V23.9046H94.8921V27.4752H101.591V31.8898H94.8921V35.3623H101.997V39.974H89.4518ZM110.072 39.974V24.256H105.485V19.3916H120.239V24.256H115.652V39.974H110.072Z" fill="#3E3232"/>
<path d="M0 24.1386C0 22.4945 0.286844 21.0602 0.86053 19.8355C1.41478 18.6378 2.22224 17.581 3.22459 16.7411C4.27175 15.8775 5.47674 15.236 6.76918 14.8538C8.21614 14.4222 9.71727 14.2102 11.2245 14.2247C13.0289 14.1926 14.821 14.535 16.4922 15.2313C17.9497 15.8376 19.2361 16.8063 20.2346 18.0497C21.2209 16.8152 22.4888 15.8474 23.9267 15.2313C25.4364 14.5603 27.1759 14.2247 29.1452 14.2247C30.636 14.2125 32.1207 14.4245 33.5513 14.8538C34.8441 15.2358 36.0493 15.8774 37.0968 16.7411C38.0983 17.5812 38.9048 18.6381 39.4584 19.8355C40.0321 21.0596 40.3189 22.494 40.3189 24.1386V40.5956H32.394V26.4535C32.394 24.7425 32.0494 23.5178 31.3602 22.7797C30.671 22.0416 29.7026 21.6721 28.4552 21.6715C27.1752 21.6715 26.1331 22.108 25.3291 22.9809C24.5249 23.8538 24.1229 25.2463 24.1229 27.1582V40.5956H16.1968V27.1582C16.1968 25.2457 15.8032 23.8532 15.0161 22.9809C14.2289 22.1086 13.1949 21.6721 11.9141 21.6715C10.667 21.6715 9.69057 22.0408 8.98494 22.7789C8.2793 23.517 7.92636 24.7419 7.9261 26.4535V40.5956H0V24.1386Z" fill="#FBAB00"/>
<path d="M21.6394 7.47594L20.5813 10.3407L16.7867 0L13.5429 7.47513H4.28125V9.4854H14.8106L16.6358 5.27899L20.5766 16.0171L22.9877 9.4854H34.2443V7.47513L21.6394 7.47594Z" fill="#FBAB00"/>
</svg>
