<svg width="147" height="52" viewBox="0 0 147 52" fill="none" xmlns="http://www.w3.org/2000/svg">
<g clip-path="url(#clip0_4_5888)">
<path d="M44.117 44.7125C44.389 44.9156 44.6783 45.0892 44.9809 45.2309C45.4438 45.4575 45.9206 45.6476 46.4081 45.7998C47.0277 45.9947 47.6574 46.1496 48.2937 46.2635C49.0297 46.3971 49.7745 46.4626 50.5205 46.4595C51.201 46.4898 51.8817 46.3996 52.5359 46.1922C52.7308 46.143 52.9043 46.0227 53.0285 45.8509C53.1525 45.6793 53.2197 45.4664 53.2189 45.2472C53.2326 45.0383 53.1845 44.83 53.0821 44.6532C52.9796 44.4764 52.8282 44.3404 52.6499 44.2651C52.0785 44.0362 51.4833 43.8865 50.8781 43.8194L49.187 43.6056C48.3651 43.4915 47.5509 43.3188 46.7498 43.0883C46.0154 42.8842 45.3176 42.5462 44.6855 42.0883C44.0963 41.6565 43.6111 41.0747 43.2715 40.3925C42.9012 39.5881 42.7228 38.6941 42.7526 37.7935C42.7447 36.9549 42.8937 36.1233 43.1903 35.3504C43.4968 34.5819 43.9715 33.9083 44.5722 33.389C45.2879 32.7817 46.1051 32.3336 46.9776 32.0698C48.1097 31.7263 49.2813 31.5642 50.4559 31.5886C51.6374 31.5728 52.8178 31.6683 53.9844 31.8739C54.8712 32.0288 55.7315 32.3293 56.5367 32.7654C56.9191 32.9771 57.2568 33.2745 57.5279 33.6384C57.7823 34.0001 57.9146 34.4475 57.902 34.9041C57.908 35.2567 57.8354 35.6057 57.6906 35.9206C57.5614 36.1995 57.3972 36.4576 57.2031 36.6871C57.0471 36.8742 56.8727 37.0415 56.6828 37.1863C56.5203 37.3048 56.4174 37.376 56.374 37.4001C56.2065 37.252 56.0271 37.1211 55.8378 37.009C55.466 36.7809 55.0738 36.5958 54.6673 36.4562C54.0925 36.2538 53.5061 36.0931 52.9121 35.975C52.145 35.8246 51.3668 35.7531 50.5877 35.7612C49.8927 35.7021 49.1951 35.8307 48.5558 36.1354C48.3878 36.2259 48.2458 36.3654 48.1453 36.5386C48.045 36.7119 47.9901 36.9123 47.9868 37.1176C47.9792 37.3023 48.0256 37.485 48.1191 37.639C48.2127 37.793 48.3485 37.9101 48.507 37.9735C49.0096 38.1842 49.5335 38.3279 50.0674 38.4012L53.0259 38.865C53.7464 38.98 54.4581 39.1528 55.1553 39.3821C55.8089 39.5927 56.4248 39.9249 56.9758 40.3642C57.5096 40.7949 57.944 41.3565 58.2447 42.0043C58.577 42.7593 58.7387 43.5908 58.7163 44.4287C58.7502 45.3357 58.5778 46.2376 58.2146 47.0531C57.8513 47.8687 57.3088 48.5721 56.6355 49.1001C55.2485 50.2171 53.3304 50.7758 50.8817 50.7761C48.8654 50.7998 46.8581 50.4802 44.9313 49.8289C44.3288 49.6311 43.7457 49.3683 43.1903 49.0444C42.8708 48.856 42.5614 48.6477 42.2637 48.4202L44.117 44.7125ZM76.3983 48.7061C76.1606 48.8727 75.8455 49.0748 75.4533 49.3123C74.9994 49.5805 74.5261 49.8072 74.0381 49.99C73.4167 50.2239 72.7807 50.4087 72.135 50.5425C71.3527 50.7038 70.558 50.7814 69.7619 50.7745C68.6085 50.7763 67.4624 50.5714 66.3692 50.1678C65.3097 49.7858 64.3311 49.1734 63.4923 48.3674C62.6451 47.5348 61.9694 46.5137 61.5101 45.372C60.9898 44.0506 60.7353 42.6217 60.764 41.1826C60.7423 39.7803 60.9916 38.389 61.4957 37.1001C61.9496 35.9499 62.6259 34.9219 63.4779 34.0868C64.3332 33.2647 65.3273 32.6346 66.4036 32.2318C67.5486 31.7988 68.7523 31.5818 69.9634 31.5902C71.0564 31.5821 72.1449 31.7442 73.1966 32.0714C74.0365 32.2929 74.8132 32.7403 75.4562 33.3731C75.684 33.619 75.8758 33.9015 76.0252 34.2113C76.1724 34.5379 76.245 34.8988 76.2367 35.2632C76.2411 35.6423 76.1747 36.0185 76.0416 36.3685C75.9182 36.6892 75.7541 36.9894 75.5542 37.26C75.3705 37.5085 75.1693 37.741 74.9529 37.9555C74.7885 38.1237 74.6088 38.2731 74.4167 38.4012C73.9368 37.9065 73.3859 37.5024 72.7857 37.2053C72.011 36.818 71.1662 36.6291 70.315 36.6526C69.7681 36.6497 69.2244 36.7462 68.7061 36.9379C68.2121 37.1183 67.758 37.4099 67.3729 37.794C66.9807 38.1935 66.67 38.6795 66.4612 39.2201C66.2245 39.8409 66.1084 40.5088 66.12 41.1815C66.1034 41.872 66.2196 42.5585 66.4612 43.1963C66.6684 43.7238 66.9807 44.1934 67.3755 44.5706C67.7684 44.9347 68.2281 45.2017 68.7234 45.3535C69.2624 45.523 69.8205 45.607 70.3813 45.6035C70.8459 45.6074 71.3094 45.5536 71.7631 45.4431C72.1451 45.3498 72.5201 45.2246 72.8847 45.0687C73.1628 44.95 73.4342 44.8131 73.6974 44.6585C73.8489 44.5759 73.9909 44.4738 74.1203 44.3541L76.3983 48.7061ZM78.5764 26.5289C78.5413 26.1596 78.5911 25.7865 78.7215 25.4438C78.8519 25.1012 79.0585 24.7999 79.3225 24.5675C79.9142 24.1588 80.6063 23.9595 81.3047 23.9969C81.8378 23.9891 82.369 24.0672 82.8815 24.2287C83.3456 24.3829 83.6442 24.4844 83.7768 24.5331V33.1593C84.2823 32.6931 84.8534 32.3198 85.4679 32.054C86.3507 31.6888 87.2907 31.5191 88.2335 31.5548C89.1488 31.5448 90.0597 31.6952 90.9318 32.0005C91.7364 32.2857 92.4744 32.7608 93.0935 33.3922C93.7336 34.0589 94.2281 34.8756 94.54 35.7814C94.9067 36.8706 95.0833 38.026 95.0603 39.1868V50.2746H89.8271V40.3605C89.8271 39.1482 89.5832 38.2686 89.0954 37.7219C88.4534 37.1669 87.654 36.8771 86.8368 36.903C86.0197 36.9292 85.2369 37.2694 84.6254 37.8643C84.0835 38.5064 83.8125 39.5048 83.8125 40.8597V50.2746H78.5799L78.5764 26.5289ZM98.3094 41.1831C98.2964 39.8701 98.5397 38.5693 99.023 37.3679C99.4868 36.2234 100.156 35.1927 100.99 34.3373C101.837 33.4727 102.823 32.7893 103.899 32.3224C106.195 31.3478 108.739 31.3478 111.035 32.3224C112.117 32.7863 113.109 33.4698 113.96 34.3373C114.795 35.1927 115.463 36.2234 115.927 37.3679C116.398 38.5736 116.641 39.8715 116.641 41.1831C116.641 42.4947 116.398 43.7927 115.927 44.9984C115.463 46.143 114.795 47.1736 113.96 48.0291C113.109 48.8964 112.117 49.58 111.035 50.0439C108.739 51.0186 106.195 51.0186 103.899 50.0439C102.823 49.577 101.837 48.8936 100.99 48.0291C100.156 47.1736 99.4868 46.143 99.023 44.9984C98.5397 43.7968 98.2964 42.4955 98.3094 41.182V41.1831ZM107.477 45.6394C107.997 45.6444 108.512 45.5289 108.988 45.3007C109.446 45.0813 109.86 44.7662 110.208 44.3732C110.56 43.9702 110.831 43.4902 111.003 42.9645C111.374 41.8104 111.374 40.5526 111.003 39.3985C110.831 38.8728 110.56 38.3929 110.208 37.9898C109.86 37.5968 109.446 37.2817 108.988 37.0624C108.508 36.8388 107.991 36.7236 107.469 36.7236C106.947 36.7236 106.43 36.8388 105.949 37.0624C105.498 37.2851 105.09 37.5998 104.746 37.9898C104.394 38.3929 104.122 38.8728 103.95 39.3985C103.58 40.5526 103.58 41.8104 103.95 42.9645C104.122 43.4902 104.394 43.9702 104.746 44.3732C105.09 44.7632 105.498 45.078 105.949 45.3007C106.43 45.5326 106.951 45.6481 107.477 45.6394ZM119.245 41.182C119.232 39.869 119.475 38.5682 119.959 37.3668C120.422 36.2223 121.091 35.1916 121.925 34.3362C122.772 33.4716 123.759 32.7882 124.835 32.3213C127.13 31.3467 129.675 31.3467 131.97 32.3213C133.052 32.7852 134.045 33.4687 134.896 34.3362C135.73 35.1916 136.399 36.2223 136.863 37.3668C137.334 38.5725 137.576 39.8704 137.576 41.182C137.576 42.4937 137.334 43.7916 136.863 44.9973C136.399 46.142 135.73 47.1725 134.896 48.0281C134.045 48.8954 133.052 49.5789 131.97 50.0429C129.675 51.0175 127.13 51.0175 124.835 50.0429C123.759 49.5759 122.772 48.8925 121.925 48.0281C121.091 47.1725 120.422 46.142 119.959 44.9973C119.475 43.7962 119.231 42.4953 119.243 41.182H119.245ZM128.413 45.6394C128.933 45.6444 129.448 45.5289 129.924 45.3007C130.382 45.0813 130.796 44.7664 131.143 44.3732C131.496 43.9702 131.767 43.4902 131.939 42.9645C132.309 41.8104 132.309 40.5526 131.939 39.3985C131.767 38.8728 131.496 38.3929 131.143 37.9898C130.796 37.5968 130.382 37.2817 129.924 37.0624C129.443 36.8388 128.927 36.7236 128.404 36.7236C127.882 36.7236 127.365 36.8388 126.884 37.0624C126.434 37.2851 126.025 37.5998 125.682 37.9898C125.329 38.3929 125.058 38.8728 124.886 39.3985C124.516 40.5526 124.516 41.8104 124.886 42.9645C125.058 43.4902 125.329 43.9702 125.682 44.3732C126.025 44.7632 126.434 45.078 126.884 45.3007C127.366 45.5326 127.887 45.6481 128.413 45.6394ZM140.993 26.5267C140.958 26.1574 141.008 25.7843 141.138 25.4417C141.269 25.099 141.475 24.7977 141.739 24.5653C142.331 24.1566 143.023 23.9573 143.721 23.9947C144.259 23.988 144.796 24.0661 145.313 24.2265C145.789 24.3808 146.093 24.4822 146.225 24.531V50.2746H140.995L140.993 26.5267Z" fill="#3E3232"/>
</g>
<path d="M0.00240904 34.1669C-0.0294299 32.6268 0.254685 31.0987 0.833595 29.6964C1.36761 28.452 2.14582 27.3536 3.1121 26.4804C4.12086 25.5836 5.2817 24.917 6.52694 24.5195C7.92266 24.071 9.37067 23.8508 10.8245 23.8659C12.5649 23.8328 14.2934 24.1885 15.9054 24.9115C17.311 25.5415 18.5514 26.548 19.5142 27.8396C20.4654 26.5574 21.6879 25.552 23.0744 24.9115C24.6689 24.1848 26.3826 23.8288 28.108 23.8659C29.546 23.8531 30.9778 24.0733 32.3577 24.5195C33.6029 24.917 34.7636 25.5836 35.7724 26.4804C36.739 27.3533 37.5175 28.4512 38.0517 29.6956C38.6325 31.0976 38.9182 32.6262 38.8879 34.1669V51.2631H31.2446V36.5718C31.2446 34.7941 30.9121 33.5218 30.247 32.7549C29.8787 32.3587 29.439 32.052 28.9565 31.8541C28.4741 31.6565 27.9593 31.5722 27.4455 31.6069C26.8844 31.5855 26.3259 31.6956 25.8066 31.93C25.2875 32.1647 24.8194 32.5179 24.4339 32.9669C23.6588 33.8735 23.2713 35.3201 23.2713 37.3069V51.2631H15.6235V37.3037C15.6235 35.317 15.2435 33.8703 14.4835 32.9637C14.1031 32.5132 13.6389 32.1585 13.1225 31.9235C12.6061 31.6889 12.0498 31.5797 11.4915 31.6035C10.9742 31.5709 10.4562 31.656 9.97008 31.8533C9.4839 32.0509 9.03994 32.3566 8.66593 32.7515C7.9878 33.5169 7.64754 34.7892 7.6451 36.5684V51.2631H0.00240904V34.1669Z" fill="#FF7F00"/>
<path d="M19.2983 23.8644C21.1695 23.8644 22.6865 22.1826 22.6865 20.108C22.6865 18.0334 21.1695 16.3516 19.2983 16.3516C17.4271 16.3516 15.9102 18.0334 15.9102 20.108C15.9102 22.1826 17.4271 23.8644 19.2983 23.8644Z" fill="#FE7B37"/>
<path d="M27.2976 11.171C27.2474 11.115 27.1941 11.0654 27.1431 11.0133L26.9908 10.8556C26.9644 10.8271 26.9361 10.8007 26.9061 10.7767C24.8062 8.70627 22.0492 7.5912 19.2086 7.66346C16.3679 7.73575 13.6624 8.98978 11.6548 11.1647L11.167 11.7003L10.4889 12.433C10.0924 12.8644 9.87026 13.4483 9.8711 14.0567C9.87193 14.665 10.0957 15.2482 10.4934 15.6783C10.8911 16.1085 11.4302 16.3506 11.9926 16.3515C12.555 16.3524 13.0948 16.1121 13.4937 15.6832L14.6603 14.4213C15.9389 13.0424 17.6708 12.2681 19.4762 12.2681C21.2817 12.2681 23.0136 13.0424 24.2922 14.4213L25.1358 15.3054C25.4312 15.6217 25.8064 15.8365 26.2143 15.9228C26.6224 16.0091 27.0448 15.963 27.4285 15.7903C27.8123 15.6176 28.1402 15.326 28.3713 14.9521C28.6024 14.5783 28.7259 14.139 28.7268 13.6894C28.7285 13.3913 28.6752 13.0959 28.57 12.8205C28.4648 12.545 28.3099 12.295 28.1143 12.0852L27.2976 11.171Z" fill="#FE7B37"/>
<path d="M33.0198 6.58088L32.3195 5.81984C32.3173 5.81567 32.3135 5.81258 32.3093 5.81116L31.7566 5.20877C31.6606 5.10614 31.5551 5.01436 31.4421 4.93484C27.9868 1.64902 23.5239 -0.109848 18.9339 0.00531816C14.344 0.120485 9.96054 2.10132 6.64842 5.55694C6.61502 5.59009 6.57579 5.61299 6.54457 5.64851L5.27994 7.02456C4.91799 7.4182 4.7147 7.95199 4.71484 8.50852C4.71496 9.06506 4.91851 9.59875 5.28068 9.99217C5.64285 10.3856 6.13399 10.6065 6.64603 10.6064C7.15808 10.6063 7.64909 10.385 8.01107 9.99137L9.2764 8.61849C9.28344 8.60765 9.29148 8.5976 9.30037 8.58851C11.9811 5.78014 15.5536 4.20111 19.2768 4.1789C23 4.1567 26.5883 5.69305 29.2971 8.46929L30.2923 9.55243C30.6545 9.94586 31.1455 10.1668 31.6576 10.1667C32.1696 10.1665 32.6606 9.94529 33.0226 9.55166C33.3846 9.15802 33.588 8.62421 33.5878 8.06767C33.5875 7.51114 33.3841 6.97745 33.0219 6.58405L33.0198 6.58088Z" fill="#FE7B37"/>
<defs>
<clipPath id="clip0_4_5888">
<rect width="133.119" height="35.6034" fill="white" transform="translate(13.1094 15.1738)"/>
</clipPath>
</defs>
</svg>
