<svg width="122" height="52" viewBox="0 0 122 52" fill="none" xmlns="http://www.w3.org/2000/svg">
<path d="M94.4982 14.0951V20.4562C100.017 17.3742 107.37 18.9928 110.356 20.1874V14.6326L117.165 13.1991L105.429 2L86.8828 9.07786L94.4982 14.0951Z" fill="#3E3232"/>
<path fill-rule="evenodd" clip-rule="evenodd" d="M96.0213 41.5106L95.7525 23.8607C95.872 22.7259 97.2039 20.4562 101.576 20.4562C105.608 20.4562 108.923 20.4562 109.012 24.9358C109.084 28.5196 109.042 37.1205 109.012 40.973C108.803 42.1676 107.722 44.5567 105.07 44.5567C102.347 44.4851 99.6946 44.5269 98.7091 44.5567C97.8245 44.288 96.0486 43.3024 96.0213 41.5106ZM102.608 41.5106C100.455 41.5106 98.7091 39.7649 98.7091 37.6114V28.7543C98.7091 26.6446 100.418 24.9337 102.528 24.9311C104.615 24.9285 106.319 26.6012 106.355 28.6887L106.507 37.5446C106.544 39.7239 104.788 41.5106 102.608 41.5106Z" fill="#3E3232"/>
<path d="M105.509 1.1052L86.1246 8.44688C85.5512 8.65372 85.1119 7.73179 85.082 7.37687C90.6965 5.28632 102.769 0.702849 104.417 0.201127C106.066 -0.300594 106.584 0.268999 106.853 0.47805L119.307 12.8419H117.784L105.509 1.1052Z" fill="#3E3232"/>
<path d="M63.91 25.9472V29.3399H53.2109V25.9472H63.91ZM55.8524 21.4883H60.2387V38.9606C60.2387 39.5503 60.3275 40.0027 60.5052 40.3177C60.691 40.6247 60.9333 40.8347 61.2322 40.9478C61.5311 41.0609 61.8623 41.1174 62.2258 41.1174C62.5004 41.1174 62.7509 41.0972 62.977 41.0568C63.2113 41.0164 63.389 40.9801 63.5102 40.9478L64.2493 44.3768C64.015 44.4576 63.6798 44.5465 63.2436 44.6434C62.8155 44.7403 62.2904 44.7969 61.6684 44.813C60.5698 44.8453 59.5803 44.6797 58.6998 44.3162C57.8193 43.9447 57.1206 43.3711 56.6036 42.5957C56.0947 41.8202 55.8443 40.8508 55.8524 39.6876V21.4883Z" fill="#3E3232"/>
<path d="M77.7346 36.7312V25.9472H82.1209V44.5586H77.8679V41.2507H77.674C77.254 42.2927 76.5633 43.145 75.6021 43.8073C74.6489 44.4697 73.4736 44.8009 72.0761 44.8009C70.8564 44.8009 69.778 44.5303 68.8409 43.9891C67.912 43.4398 67.185 42.6441 66.6599 41.6021C66.1349 40.552 65.8723 39.2838 65.8723 37.7974V25.9472H70.2586V37.1189C70.2586 38.2983 70.5817 39.2353 71.2279 39.93C71.8742 40.6247 72.7223 40.972 73.7725 40.972C74.4187 40.972 75.0447 40.8145 75.6506 40.4995C76.2564 40.1844 76.7532 39.7159 77.1409 39.0939C77.5367 38.4638 77.7346 37.6763 77.7346 36.7312Z" fill="#3E3232"/>
<path d="M94.2189 25.9472V29.3399H83.5198V25.9472H94.2189ZM86.1612 21.4883H90.5475V38.9606C90.5475 39.5503 90.6363 40.0027 90.8141 40.3177C90.9999 40.6247 91.2422 40.8347 91.5411 40.9478C91.8399 41.0609 92.1711 41.1174 92.5346 41.1174C92.8093 41.1174 93.0597 41.0972 93.2859 41.0568C93.5201 41.0164 93.6978 40.9801 93.819 40.9478L94.5581 44.3768C94.3239 44.4576 93.9886 44.5465 93.5524 44.6434C93.1243 44.7403 92.5993 44.7969 91.9773 44.813C90.8787 44.8453 89.8891 44.6797 89.0087 44.3162C88.1282 43.9447 87.4294 43.3711 86.9125 42.5957C86.4036 41.8202 86.1531 40.8508 86.1612 39.6876V21.4883Z" fill="#3E3232"/>
<path d="M110.91 44.3662V25.7548H115.163V28.8567H115.357C115.696 27.7824 116.278 26.9544 117.102 26.3728C117.934 25.7831 118.883 25.4883 119.949 25.4883C120.192 25.4883 120.462 25.5004 120.761 25.5246C121.068 25.5408 121.322 25.5691 121.524 25.6094V29.6443C121.339 29.5797 121.044 29.5232 120.64 29.4747C120.244 29.4181 119.86 29.3899 119.489 29.3899C118.689 29.3899 117.97 29.5635 117.332 29.9109C116.702 30.2502 116.205 30.7227 115.842 31.3286C115.478 31.9344 115.296 32.6331 115.296 33.4248V44.3662H110.91Z" fill="#3E3232"/>
<path d="M32.2674 27.7514C32.3706 27.6681 32.4737 27.5951 32.5666 27.5118C35.1153 24.9693 37.6675 22.4233 40.2231 19.8738C41.0895 19.0194 41.9463 18.1546 42.8647 17.3626C44.1958 16.1956 45.7022 16.0288 47.3223 16.7374C48.1065 17.0813 48.8185 17.4981 49.2313 18.3005C49.5726 18.9629 49.7463 19.7004 49.737 20.4471C49.7267 21.6141 49.6956 22.7812 49.6029 23.9379C49.4481 25.9594 49.2521 27.9809 49.0564 30.0023C48.9017 31.6487 48.6952 33.2846 48.5405 34.9311C48.4373 35.9835 48.3651 37.0464 48.3238 38.1092C48.2824 39.1928 48.2722 40.2762 48.3238 41.3603C48.396 42.7566 48.5503 44.1633 49.2525 45.4137C50.016 46.7684 51.1408 47.6124 52.7298 47.6436C53.3861 47.6361 54.0281 47.4488 54.5872 47.1018L54.9278 46.9143C54.9484 46.9455 54.9793 46.9664 55 46.9976C54.5868 47.4456 54.2055 47.9146 53.7721 48.3314C52.7274 49.3626 51.5254 50.2175 50.2121 50.8635C48.7619 51.5814 47.1733 51.9692 45.5584 51.9993C44.2273 52.0097 42.9169 51.9051 41.6477 51.4992C39.8935 50.9364 38.5934 49.832 37.8916 48.071C37.2621 46.4767 37.2312 44.8095 37.3241 43.1314C37.3964 41.8706 37.3964 40.5993 37.4174 39.3281C37.4483 37.0669 37.4587 34.8058 37.4794 32.5341C37.4794 32.3674 37.4587 32.2008 37.4381 31.9507C37.3143 32.0654 37.242 32.1175 37.1904 32.1795C35.5808 34.1385 33.9917 36.1183 32.3614 38.046C30.5762 40.1509 28.7494 42.2244 26.717 44.1106C25.7058 45.0483 24.6017 45.8199 23.1983 46.0382C21.6403 46.2779 20.3195 45.8094 19.3392 44.5794C18.4331 43.4503 17.864 42.0841 17.6985 40.6405C17.554 39.463 17.781 38.348 18.1319 37.2539C18.751 35.3158 19.4011 33.388 20.0305 31.4604C20.1543 31.0853 20.2679 30.7201 20.3917 30.3454C20.3651 30.3266 20.3375 30.3093 20.3092 30.2933C20.2273 30.3394 20.1512 30.3954 20.0826 30.4601C17.41 33.6382 14.7272 36.7955 12.0857 39.9945C11.2705 40.9844 10.6204 42.1097 9.81562 43.0997C8.81467 44.3397 7.57648 45.2566 5.95643 45.5067C5.19484 45.6129 4.42 45.5669 3.67597 45.3713C2.22973 45.0281 1.1668 44.2255 0.537446 42.8608C0.168588 41.9739 -0.0141245 41.0194 0.000851524 40.0576C-0.0128764 38.8505 0.157683 37.6485 0.506524 36.4939C0.95022 35.0871 1.47642 33.7013 1.98209 32.3154C2.69408 30.3461 3.41634 28.3871 4.12793 26.4281C5.00506 24.0315 5.89246 21.6348 6.75919 19.2274C7.15131 18.1641 7.5125 17.0808 7.89422 16.018C8.08002 15.5074 8.01804 15.4241 7.46079 15.372C6.36694 15.2778 5.38678 15.5803 4.45807 16.1222C4.01438 16.3828 3.59174 16.6849 3.0754 16.9245C3.19922 16.6639 3.31278 16.4035 3.45726 16.1638C4.48913 14.434 5.98535 13.2252 7.80146 12.4438C8.54437 12.1208 9.31834 11.8186 10.1026 11.7035C11.0209 11.5785 11.9703 11.6202 12.899 11.6723C13.9824 11.7349 14.9834 12.1204 15.943 12.6205C16.6653 12.9956 17.2741 13.5166 17.3876 14.3607C17.4633 15.007 17.4355 15.6614 17.3051 16.2988C16.9233 18.1848 16.5106 20.0605 16.0463 21.9152C15.5819 23.7591 15.0557 25.5935 14.5501 27.4274C14.5226 27.5266 14.5019 27.6276 14.4881 27.7296C14.6068 27.6586 14.7175 27.5748 14.8182 27.4795C17.1399 24.4472 19.4616 21.4115 21.7833 18.3723C22.9803 16.8093 24.1462 15.2254 25.3639 13.6833C26.2513 12.5474 27.3554 11.6618 28.7485 11.2241C29.8113 10.881 30.9606 10.9332 31.9886 11.3715C32.5893 11.6269 33.1602 11.9484 33.6911 12.3302C34.744 13.0804 35.1151 14.2057 35.1667 15.4459C35.2287 16.7588 35.0015 18.0509 34.7332 19.3325C34.1451 22.0938 33.2474 24.7614 32.2465 27.3977C32.215 27.4994 32.1942 27.6042 32.1845 27.7104C32.2131 27.7219 32.2408 27.7356 32.2674 27.7514Z" fill="#069AF2"/>
</svg>
